<?xml version="1.0" standalone="no"?>
<!DOCTYPE svg PUBLIC "-//W3C//DTD SVG 20010904//EN"
 "http://www.w3.org/TR/2001/REC-SVG-20010904/DTD/svg10.dtd">
<svg version="1.0" xmlns="http://www.w3.org/2000/svg"
 width="1080.000000pt" height="1080.000000pt" viewBox="0 0 1080.000000 1080.000000"
 preserveAspectRatio="xMidYMid meet">
<metadata>
Created by potrace 1.11, written by Peter Selinger 2001-2013
</metadata>
<g transform="translate(0.000000,1080.000000) scale(0.100000,-0.100000)"
fill="#000000" stroke="none">
<path d="M5084 10340 c-3 -2 -33 -5 -67 -6 -34 -1 -64 -3 -67 -4 -3 -1 -21 -3
-40 -5 -19 -1 -39 -3 -45 -5 -5 -1 -28 -4 -50 -5 -22 -1 -43 -3 -47 -5 -5 -1
-21 -4 -38 -5 -16 -1 -31 -4 -32 -5 -2 -2 -16 -4 -33 -6 -27 -2 -69 -8 -135
-19 -14 -2 -36 -7 -50 -10 -14 -4 -36 -8 -50 -10 -14 -1 -26 -4 -27 -5 -2 -1
-12 -4 -23 -5 -11 -1 -21 -4 -22 -5 -2 -1 -12 -4 -23 -6 -43 -7 -103 -20 -115
-24 -3 -1 -9 -3 -15 -5 -5 -1 -12 -3 -15 -5 -3 -1 -14 -4 -25 -6 -25 -4 -59
-12 -62 -14 -2 -2 -7 -4 -13 -5 -5 -1 -11 -3 -12 -5 -2 -1 -10 -3 -18 -5 -8
-2 -25 -6 -37 -9 -13 -3 -32 -8 -42 -10 -11 -3 -29 -10 -40 -16 -12 -6 -21 -8
-21 -5 0 3 -10 0 -22 -7 -24 -13 -27 -14 -72 -23 -16 -3 -34 -9 -40 -13 -6 -4
-14 -7 -18 -8 -5 -1 -9 -2 -10 -3 -2 -2 -14 -5 -28 -7 -14 -3 -26 -9 -28 -14
-2 -5 -9 -7 -17 -4 -7 3 -16 1 -20 -5 -3 -6 -15 -11 -26 -11 -10 0 -19 -4 -19
-10 0 -5 -3 -9 -7 -8 -5 1 -24 -4 -43 -11 -19 -8 -39 -13 -43 -12 -4 1 -15 -6
-23 -14 -9 -8 -20 -13 -25 -10 -5 4 -9 1 -9 -5 0 -6 -4 -9 -9 -5 -5 3 -12 1
-16 -5 -3 -5 -15 -10 -26 -10 -10 0 -19 -5 -19 -11 0 -5 -4 -7 -10 -4 -5 3
-10 1 -10 -6 0 -7 -3 -10 -6 -6 -4 3 -27 -5 -51 -19 -24 -13 -48 -22 -53 -19
-4 3 -10 1 -12 -3 -1 -4 -37 -25 -78 -46 -128 -64 -183 -95 -192 -108 -4 -7
-8 -10 -8 -6 0 12 -80 -33 -80 -45 0 -6 -3 -8 -6 -4 -3 3 -23 -5 -44 -18 -21
-13 -41 -21 -44 -18 -3 4 -6 -1 -6 -11 0 -9 -4 -15 -9 -12 -5 3 -14 -1 -21 -9
-7 -8 -17 -15 -22 -15 -5 0 -37 -19 -71 -42 -34 -24 -65 -42 -69 -40 -5 1 -8
-5 -8 -15 0 -9 -3 -14 -6 -10 -3 3 -11 2 -18 -3 -46 -38 -106 -79 -106 -72 -1
4 -7 -4 -15 -18 -7 -14 -16 -24 -19 -22 -6 2 -113 -72 -126 -87 -20 -23 -130
-111 -139 -111 -6 0 -11 -5 -11 -10 0 -14 -51 -59 -67 -60 -7 0 -13 -7 -13
-15 0 -8 -5 -15 -11 -15 -15 0 -39 -26 -32 -34 4 -3 1 -6 -5 -6 -7 0 -22 -11
-34 -25 -11 -13 -25 -22 -30 -19 -4 3 -8 1 -8 -4 0 -6 -16 -26 -35 -45 -19
-19 -35 -34 -35 -32 0 2 -16 -13 -35 -32 -19 -19 -35 -37 -35 -40 0 -3 -16
-23 -35 -44 -19 -22 -35 -37 -35 -33 0 3 -30 -31 -67 -75 -37 -45 -70 -81 -75
-81 -4 0 -8 -6 -8 -14 0 -8 -4 -16 -8 -18 -5 -1 -25 -25 -45 -51 -21 -27 -37
-45 -37 -40 0 4 -6 -1 -12 -12 -6 -11 -41 -60 -78 -110 -105 -142 -181 -255
-173 -255 4 0 3 -4 -3 -8 -10 -6 -37 -48 -111 -168 -7 -10 -26 -47 -44 -81
-18 -35 -37 -63 -42 -63 -5 0 -7 -7 -3 -15 3 -8 2 -15 -2 -15 -7 0 -10 -5 -46
-77 -11 -21 -25 -41 -30 -45 -6 -4 -8 -8 -3 -8 4 0 0 -11 -9 -25 -9 -14 -13
-25 -9 -25 3 0 -1 -7 -10 -16 -9 -9 -14 -23 -11 -30 3 -8 1 -14 -4 -14 -8 0
-24 -37 -22 -50 0 -3 -6 -12 -14 -22 -9 -9 -17 -22 -18 -30 -5 -31 -18 -58
-27 -58 -6 0 -8 -4 -5 -9 3 -4 -3 -26 -13 -47 -11 -21 -17 -42 -14 -46 2 -5
-1 -8 -8 -8 -7 0 -10 -3 -6 -6 3 -4 -3 -24 -14 -45 -11 -22 -16 -39 -12 -39 5
0 3 -4 -4 -8 -6 -4 -14 -19 -17 -32 -6 -34 -27 -93 -37 -106 -5 -6 -6 -14 -2
-17 3 -4 0 -13 -7 -22 -7 -8 -10 -15 -7 -15 3 0 -1 -17 -9 -37 -9 -20 -18 -46
-21 -57 -8 -37 -11 -51 -13 -53 -2 -2 -4 -7 -5 -13 -1 -5 -3 -11 -5 -12 -1 -2
-3 -10 -5 -18 -2 -8 -6 -24 -9 -35 -3 -11 -10 -38 -16 -60 -10 -36 -15 -60
-25 -105 -2 -8 -4 -15 -6 -15 -1 0 -3 -9 -5 -20 -2 -11 -6 -33 -10 -50 -3 -16
-6 -40 -7 -52 0 -13 -4 -23 -8 -23 -4 0 -8 -8 -8 -17 0 -10 -2 -31 -6 -48 -9
-50 -16 -89 -20 -120 -2 -16 -4 -30 -5 -30 -3 0 -6 -21 -14 -95 -2 -25 -5 -46
-6 -47 -2 -2 -4 -21 -5 -43 -1 -22 -4 -41 -5 -42 -2 -3 -5 -29 -15 -163 -8
-98 -8 -663 0 -760 3 -44 7 -98 8 -120 1 -22 5 -44 8 -50 3 -5 5 -27 4 -47 -1
-21 1 -38 4 -38 3 0 6 -15 5 -32 0 -18 2 -37 5 -43 3 -5 6 -21 7 -35 1 -14 5
-43 9 -65 3 -22 7 -50 8 -62 0 -13 5 -23 10 -23 4 0 6 -4 3 -8 -3 -4 -1 -26 4
-48 13 -59 21 -96 25 -124 2 -14 9 -45 15 -70 7 -25 14 -54 16 -65 6 -24 7
-28 23 -85 8 -25 14 -50 15 -57 1 -7 5 -16 9 -19 4 -4 7 -18 7 -31 0 -13 7
-37 15 -53 9 -17 16 -33 16 -37 5 -30 33 -118 42 -130 5 -7 7 -13 3 -13 -3 0
1 -17 10 -37 8 -21 17 -47 20 -57 2 -11 9 -23 15 -26 6 -4 10 -11 10 -16 -1
-12 8 -44 19 -69 9 -18 31 -72 35 -85 1 -3 8 -18 15 -35 7 -16 12 -36 11 -43
-1 -6 2 -12 8 -12 7 0 19 -24 32 -68 2 -4 9 -13 16 -20 7 -8 11 -18 8 -23 -4
-5 -1 -9 4 -9 6 0 10 -3 9 -7 -3 -9 58 -133 108 -218 19 -33 37 -68 40 -77 4
-10 11 -18 16 -18 6 0 8 -6 5 -14 -3 -8 3 -22 14 -32 10 -9 19 -22 19 -29 0
-6 9 -21 21 -34 12 -12 18 -25 15 -28 -3 -3 5 -15 17 -27 12 -12 23 -25 24
-31 1 -5 26 -46 55 -89 29 -43 58 -86 63 -94 6 -9 18 -25 27 -36 10 -11 18
-24 18 -28 0 -5 11 -20 25 -34 14 -14 25 -28 25 -32 0 -4 14 -22 30 -41 17
-18 32 -38 33 -43 1 -6 17 -26 35 -44 18 -19 31 -34 28 -34 -2 0 16 -21 40
-47 23 -26 42 -49 40 -50 -2 -2 38 -46 89 -98 50 -53 89 -97 87 -99 -4 -5 46
-56 56 -56 4 -1 21 -19 37 -40 17 -21 33 -39 37 -40 5 0 16 -8 26 -18 59 -57
214 -196 255 -228 26 -20 47 -40 47 -45 0 -4 8 -10 17 -13 10 -3 35 -22 56
-42 20 -19 37 -33 37 -29 0 3 12 -6 27 -20 15 -14 31 -25 35 -25 4 0 21 -13
39 -30 18 -16 36 -27 41 -24 4 3 8 1 8 -4 0 -11 141 -107 153 -104 4 1 7 -2 7
-7 0 -5 25 -24 55 -42 30 -18 55 -37 55 -42 0 -4 4 -5 10 -2 5 3 20 -3 32 -14
12 -12 26 -21 30 -21 5 0 26 -11 48 -25 22 -14 40 -23 40 -19 0 3 7 -1 15 -8
36 -33 46 -39 54 -34 5 3 14 -1 21 -9 7 -8 19 -15 26 -15 8 0 14 -3 14 -7 0
-9 49 -33 67 -33 7 0 13 -4 13 -8 0 -7 87 -50 108 -53 4 -1 20 -10 35 -21 16
-11 31 -17 34 -14 4 3 14 -1 24 -10 9 -8 23 -17 31 -18 7 -2 27 -9 43 -16 17
-7 35 -14 40 -15 6 -2 30 -12 55 -23 45 -20 93 -37 98 -33 1 1 10 -5 19 -14 8
-9 22 -14 29 -11 8 3 14 1 14 -5 0 -6 7 -9 15 -5 8 3 15 2 15 -3 0 -8 56 -25
73 -22 4 0 7 -3 7 -7 0 -5 6 -9 13 -10 22 -2 42 -7 55 -15 6 -5 12 -5 12 -1 0
3 6 2 13 -3 13 -11 56 -24 96 -29 13 -2 29 -8 34 -13 6 -6 23 -11 37 -11 15 0
30 -3 34 -7 3 -4 12 -8 19 -9 7 -2 23 -6 37 -9 14 -4 35 -7 48 -8 12 -1 22 -4
22 -8 0 -4 17 -10 38 -13 20 -3 48 -8 62 -10 14 -2 26 -5 28 -6 1 -1 11 -4 22
-5 11 -1 22 -4 25 -5 3 -1 14 -4 25 -5 11 -1 21 -3 23 -4 1 -2 13 -4 27 -7 14
-2 39 -7 55 -9 51 -10 99 -17 130 -20 17 -2 30 -4 30 -5 0 -2 60 -9 120 -14
22 -2 40 -5 40 -6 0 -2 14 -4 160 -15 95 -8 688 -13 700 -6 6 3 37 7 70 8 72
3 159 10 163 13 1 2 20 4 42 5 22 1 41 3 43 5 1 1 18 4 37 6 121 15 165 21
165 24 0 2 52 10 75 11 8 0 22 3 30 6 8 4 22 7 30 7 8 1 20 4 25 7 6 4 18 5
28 4 9 -2 17 0 17 4 0 4 10 8 23 9 28 2 72 9 72 11 0 2 9 4 19 6 11 2 31 7 45
11 14 4 31 6 38 5 6 -1 14 3 18 8 3 6 12 8 20 4 8 -3 15 0 15 5 0 6 8 11 18
11 16 0 54 7 60 11 1 2 7 4 12 5 6 1 13 4 18 5 4 1 11 2 16 1 4 -1 14 4 22 10
8 6 14 8 14 4 0 -4 7 -2 15 5 8 7 15 9 15 6 0 -4 10 -1 23 6 12 6 27 13 32 14
6 1 21 4 35 7 14 3 46 14 73 26 26 11 47 18 47 16 0 -2 30 9 68 26 37 17 68
30 70 30 1 -1 18 6 38 14 20 8 43 15 50 15 8 0 14 5 14 12 0 6 3 8 6 5 4 -3
16 -1 28 5 11 7 23 13 26 14 3 1 15 5 28 9 12 4 22 11 22 16 0 5 3 8 8 7 13
-4 52 13 52 22 0 5 6 7 14 4 7 -3 21 2 30 11 9 9 16 14 16 11 0 -3 35 13 78
36 42 23 98 52 125 66 26 13 47 28 47 33 0 6 4 8 8 5 5 -3 25 6 45 19 20 14
39 25 42 25 3 0 23 11 44 24 21 14 42 22 45 19 3 -4 6 1 6 11 0 9 5 14 10 11
6 -3 10 -1 10 6 0 7 3 10 6 6 4 -3 13 1 21 9 8 8 19 12 24 9 5 -4 9 2 9 11 0
10 3 14 6 11 6 -5 48 21 109 66 5 4 55 39 110 79 55 39 121 89 148 110 26 22
47 38 47 36 0 -2 26 20 58 49 31 29 60 53 63 53 12 0 179 161 179 173 0 4 6 7
13 7 8 0 42 29 75 64 34 35 62 61 62 58 0 -4 14 13 30 38 16 25 30 42 30 37 0
-9 128 135 221 248 94 114 169 214 169 226 0 6 4 8 9 5 7 -5 24 21 30 46 1 4
16 23 33 42 16 19 29 37 28 41 -1 4 2 11 7 14 13 9 136 201 161 251 7 14 26
48 42 75 16 28 40 70 52 95 13 25 26 47 29 50 3 3 12 20 20 38 8 17 17 32 21
32 5 0 7 3 6 8 -2 7 22 66 48 115 9 15 12 27 9 27 -4 0 1 7 9 16 9 8 14 20 11
25 -4 5 -2 9 2 9 9 0 39 69 35 83 -1 4 3 7 9 7 5 0 7 5 4 10 -3 6 -1 10 5 10
6 0 10 6 8 13 -1 6 4 23 12 37 7 14 12 25 11 25 -1 0 3 14 10 30 7 17 13 33
14 38 2 4 4 9 5 12 1 3 3 8 4 13 1 4 7 17 14 30 7 12 10 22 7 22 -3 0 1 13 10
30 9 16 13 30 9 30 -3 0 1 12 11 26 9 14 14 28 11 31 -3 3 1 18 10 34 8 16 12
29 8 29 -4 0 -1 6 5 13 6 8 13 24 15 38 3 13 6 26 7 29 1 3 3 10 4 15 2 6 4
12 5 15 1 3 3 13 6 23 2 9 6 25 8 35 3 9 5 18 6 20 2 1 4 7 5 12 1 6 4 11 5
13 1 1 4 11 6 22 4 26 12 60 14 60 2 0 8 27 15 60 8 37 13 60 15 63 2 1 4 11
5 22 1 11 4 22 5 25 1 3 4 14 5 25 1 11 3 21 5 23 2 2 8 31 15 72 3 17 7 41
10 55 10 54 18 116 18 143 1 15 5 27 9 27 4 0 7 12 7 28 0 35 8 127 11 127 2
0 4 27 15 165 8 93 12 683 6 695 -3 5 -7 39 -8 75 -4 81 -10 155 -13 155 -1 0
-4 20 -6 45 -2 25 -6 63 -9 85 -3 22 -7 54 -9 70 -2 17 -5 30 -6 30 -1 0 -3
11 -5 25 -9 65 -22 145 -25 145 -1 0 -3 11 -5 25 -9 49 -11 60 -17 66 -4 3 -4
17 -2 30 2 13 0 24 -5 24 -5 0 -8 8 -6 18 1 9 0 21 -3 27 -3 5 -7 16 -8 25 -5
32 -10 50 -16 56 -4 3 -4 12 -1 20 3 8 0 14 -6 14 -6 0 -8 7 -5 15 4 8 1 22
-6 30 -7 8 -9 15 -5 15 4 0 2 6 -4 13 -6 8 -8 17 -4 20 3 4 1 13 -6 20 -6 8
-13 27 -15 43 -3 28 -7 41 -23 82 -3 9 -7 20 -8 25 -2 4 -3 8 -4 10 -2 1 -4
13 -7 26 -2 13 -11 38 -18 55 -8 17 -20 49 -26 71 -7 22 -15 45 -19 50 -3 6
-6 13 -7 18 -1 4 -3 9 -4 12 -1 3 -3 8 -4 13 -1 4 -10 25 -19 46 -10 22 -20
50 -23 63 -4 13 -10 26 -15 29 -5 3 -7 10 -4 15 4 5 1 9 -6 9 -7 0 -9 3 -6 7
4 3 0 17 -8 30 -9 13 -13 23 -10 23 3 0 -11 30 -30 66 -19 36 -35 72 -35 80 0
8 -4 14 -10 14 -5 0 -9 3 -8 8 4 14 -13 52 -24 52 -5 0 -8 6 -5 14 3 8 -1 20
-9 26 -8 7 -14 18 -14 26 0 7 -8 18 -17 23 -10 6 -14 11 -10 11 4 0 -5 21 -19
48 -15 26 -36 63 -46 82 -20 37 -23 42 -78 133 -49 83 -51 85 -99 160 -24 37
-48 67 -53 67 -4 0 -8 5 -8 12 0 6 -11 26 -25 44 -14 18 -25 35 -25 37 0 3 -9
16 -20 29 -53 62 -70 84 -70 91 0 8 -38 54 -86 104 -17 18 -30 34 -28 36 2 2
-23 32 -56 67 -33 36 -60 66 -60 68 0 3 -34 40 -75 84 -41 44 -75 84 -75 89 0
5 -6 9 -12 10 -7 0 -33 24 -58 53 -25 29 -51 51 -57 48 -7 -2 -13 0 -13 6 0
10 -57 72 -65 72 -2 0 -21 17 -43 38 -21 20 -62 57 -92 81 -30 25 -64 53 -75
63 -21 19 -64 53 -132 106 -23 17 -47 32 -53 32 -6 0 -8 5 -5 10 3 6 2 10 -4
10 -6 0 -34 18 -63 40 -29 22 -56 40 -60 40 -4 0 -19 11 -34 25 -14 13 -30 22
-34 20 -4 -3 -11 2 -14 11 -3 8 -10 12 -16 9 -5 -3 -10 -2 -10 3 0 10 -122 89
-129 83 -2 -1 -7 2 -10 7 -6 9 -66 46 -131 80 -19 10 -47 26 -62 36 -16 10
-28 15 -28 11 0 -3 -7 1 -16 9 -8 9 -20 14 -25 11 -5 -4 -9 -2 -9 4 0 11 -130
78 -142 73 -5 -1 -8 2 -8 8 0 5 -7 10 -15 10 -8 0 -35 11 -60 25 -25 14 -45
22 -45 18 0 -4 -4 -2 -9 5 -4 7 -14 14 -22 16 -8 1 -30 9 -49 18 -35 16 -73
30 -78 29 -1 -1 -18 8 -39 19 -20 10 -40 17 -45 14 -4 -3 -8 0 -8 7 0 7 -3 9
-7 6 -3 -4 -16 -1 -28 7 -12 8 -32 16 -46 18 -13 1 -26 6 -29 10 -3 4 -17 10
-30 12 -14 2 -27 5 -30 6 -3 2 -8 2 -12 1 -5 0 -8 4 -8 11 0 6 -3 9 -6 5 -4
-3 -22 0 -40 8 -19 8 -38 15 -42 16 -4 1 -11 3 -17 5 -9 3 -85 24 -107 30 -5
1 -9 2 -10 4 -3 1 -21 6 -50 13 -7 1 -18 6 -25 10 -6 4 -18 4 -27 1 -9 -4 -16
-1 -16 6 0 7 -7 10 -15 7 -8 -4 -17 -1 -21 4 -3 6 -15 9 -25 6 -11 -3 -19 -1
-19 5 0 6 -7 8 -15 5 -8 -4 -17 -2 -20 3 -3 5 -14 7 -25 5 -11 -2 -20 0 -20 5
0 4 -8 7 -17 5 -10 -1 -22 0 -28 4 -5 3 -18 6 -27 7 -10 1 -20 3 -23 4 -3 1
-14 4 -25 5 -11 1 -21 3 -22 5 -5 3 -102 20 -138 23 -14 2 -29 5 -35 9 -5 3
-21 4 -35 3 -14 -1 -29 1 -35 5 -5 5 -21 9 -35 9 -39 1 -125 9 -125 11 0 1
-20 4 -45 6 -25 2 -76 6 -115 9 -91 7 -695 12 -701 5z"/>
</g>
</svg>
