<svg xmlns="http://www.w3.org/2000/svg" xmlns:xlink="http://www.w3.org/1999/xlink" xmlns:lucid="lucid" width="2316.25" height="1360"><g transform="translate(0 0)" lucid:page-tab-id="0_0"><path d="M0 0h2316.25v1360H0z" fill="#fff"/><path d="M1380 587.37c0-4.42 3.58-8 8-8h304c4.42 0 8 3.58 8 8v44c0 4.42-3.58 8-8 8h-304c-4.42 0-8-3.58-8-8z" fill="none"/><use xlink:href="#a" transform="matrix(1,0,0,1,1380,579.3713121416877) translate(0 20.977777777777778)"/><use xlink:href="#b" transform="matrix(1,0,0,1,1380,579.3713121416877) translate(36.01 20.977777777777778)"/><use xlink:href="#c" transform="matrix(1,0,0,1,1380,579.3713121416877) translate(108.77666666666667 20.977777777777778)"/><use xlink:href="#d" transform="matrix(1,0,0,1,1380,579.3713121416877) translate(191.8137037037037 20.977777777777778)"/><use xlink:href="#e" transform="matrix(1,0,0,1,1380,579.3713121416877) translate(0 52.44444444444444)"/><use xlink:href="#f" transform="matrix(1,0,0,1,1380,579.3713121416877) translate(90.10246913580247 52.44444444444444)"/><use xlink:href="#g" transform="matrix(1,0,0,1,1380,579.3713121416877) translate(119.23827160493826 52.44444444444444)"/><use xlink:href="#h" transform="matrix(1,0,0,1,1380,579.3713121416877) translate(183.1185185185185 52.44444444444444)"/><use xlink:href="#i" transform="matrix(1,0,0,1,1380,579.3713121416877) translate(0 83.91111111111111)"/><path d="M218.63 286.3c0-4.43 3.58-8 8-8h224c4.42 0 8 3.57 8 8v44c0 4.4-3.58 8-8 8h-224c-4.42 0-8-3.6-8-8z" fill="none"/><use xlink:href="#j" transform="matrix(1,0,0,1,218.62758173145335,278.2856874687592) translate(21.6314814814815 35.37777777777778)"/><use xlink:href="#k" transform="matrix(1,0,0,1,218.62758173145335,278.2856874687592) translate(149.87654320987653 35.37777777777778)"/><path d="M360 468c0-4.42 3.58-8 8-8h324c4.42 0 8 3.58 8 8v35.43c0 4.42-3.58 8-8 8H368c-4.42 0-8-3.58-8-8z" fill="none"/><use xlink:href="#l" transform="matrix(1,0,0,1,360,460) translate(0.2608024691358537 21.511111111111106)"/><use xlink:href="#m" transform="matrix(1,0,0,1,360,460) translate(29.396604938271654 21.511111111111106)"/><use xlink:href="#n" transform="matrix(1,0,0,1,360,460) translate(112.90154320987656 21.511111111111106)"/><use xlink:href="#o" transform="matrix(1,0,0,1,360,460) translate(142.7780864197531 21.511111111111106)"/><use xlink:href="#p" transform="matrix(1,0,0,1,360,460) translate(232.25833333333333 21.511111111111106)"/><use xlink:href="#q" transform="matrix(1,0,0,1,360,460) translate(62.66851851851854 53.777777777777764)"/><use xlink:href="#r" transform="matrix(1,0,0,1,360,460) translate(159.54320987654322 53.777777777777764)"/><use xlink:href="#s" transform="matrix(1,0,0,1,360,460) translate(220.71543209876543 53.777777777777764)"/><path d="M883.6 1028c0-4.42 3.58-8 8-8h389.95c4.42 0 8 3.58 8 8v68.93c0 4.42-3.58 8-8 8H891.6c-4.42 0-8-3.58-8-8z" fill="none"/><use xlink:href="#t" transform="matrix(1,0,0,1,883.5951878588461,1020) translate(54.58950617283952 32.01111111111111)"/><use xlink:href="#u" transform="matrix(1,0,0,1,883.5951878588461,1020) translate(83.72530864197532 32.01111111111111)"/><use xlink:href="#v" transform="matrix(1,0,0,1,883.5951878588461,1020) translate(178.27098765432098 32.01111111111111)"/><use xlink:href="#w" transform="matrix(1,0,0,1,883.5951878588461,1020) translate(240.76728395061727 32.01111111111111)"/><use xlink:href="#x" transform="matrix(1,0,0,1,883.5951878588461,1020) translate(320.89074074074074 32.01111111111111)"/><use xlink:href="#y" transform="matrix(1,0,0,1,883.5951878588461,1020) translate(8.882716049382736 63.477777777777774)"/><use xlink:href="#z" transform="matrix(1,0,0,1,883.5951878588461,1020) translate(148.51604938271606 63.477777777777774)"/><use xlink:href="#A" transform="matrix(1,0,0,1,883.5951878588461,1020) translate(263.52962962962965 63.477777777777774)"/><use xlink:href="#B" transform="matrix(1,0,0,1,883.5951878588461,1020) translate(292.51975308641977 63.477777777777774)"/><path d="M1560 800.15c0-4.42 3.58-8 8-8h224c4.42 0 8 3.58 8 8v44c0 4.4-3.58 8-8 8h-224c-4.42 0-8-3.6-8-8z" fill="none"/><use xlink:href="#C" transform="matrix(1,0,0,1,1560,792.146649362907) translate(82.09413580246914 35.37777777777778)"/><path d="M789.55 200h540v940h-540z" stroke="#232f3e" stroke-width="2" fill-opacity="0"/><path d="M789.55 200h56v56h-56v-56z" stroke="#fff" stroke-opacity="0" fill="#232f3e"/><path d="M807.77 225.87c-.04.48.05.87.17 1.34.12.4.3.7.5 1.07.03.1.07.22.07.34 0 .2-.1.36-.27.46l-.95.62c-.12.08-.24.13-.37.13-.15 0-.32-.06-.44-.2-.2-.2-.37-.43-.53-.7-.17-.25-.3-.53-.46-.86-1.1 1.37-2.62 2.1-4.4 2.06-1.14.06-2.12-.3-2.95-1.08-.78-.8-1.15-1.76-1.1-2.85-.05-1.23.4-2.28 1.35-3.08 1.07-.85 2.3-1.23 3.66-1.16.57 0 1.02.02 1.6.1.57.1 1.1.2 1.72.33v-1.1c.08-.88-.16-1.67-.7-2.37-.74-.56-1.56-.8-2.46-.7-.54 0-1.04.07-1.6.2-.6.13-1.04.3-1.6.5l-.5.2h-.25c-.2 0-.33-.16-.33-.45v-.75c0-.18.04-.34.12-.5.13-.16.25-.26.4-.33.67-.3 1.2-.5 1.9-.67.78-.2 1.48-.3 2.3-.28 1.48-.13 2.8.26 3.9 1.2.95 1.05 1.36 2.28 1.23 3.67zm-6.07 2.28c.57 0 1.06-.1 1.6-.28.57-.2 1.02-.5 1.44-.96.24-.27.4-.56.5-.93.1-.45.15-.84.15-1.3V224c-.54-.1-.95-.17-1.44-.2h-1.4c-.82-.08-1.56.12-2.22.58-.53.45-.78 1.04-.74 1.73-.04.6.13 1.16.54 1.6.45.38.98.52 1.56.45zm12 1.6c-.22 0-.42-.03-.6-.15-.15-.17-.23-.36-.32-.6l-3.5-11.5-.1-.62c0-.24.1-.37.36-.37h1.48c.2 0 .37.04.57.15.16.18.24.37.28.6l2.5 9.96 2.4-9.93c0-.24.07-.44.27-.6.17-.12.37-.16.58-.15h1.2c.24 0 .4.03.6.15.17.18.25.36.3.6l2.33 9.94 2.55-10c.05-.2.17-.4.34-.58.16-.1.37-.17.57-.14h1.4c.17 0 .34.1.38.3v.31s0 .2-.12.35l-3.62 11.53c-.04.22-.12.42-.3.6-.2.1-.35.14-.56.13h-1.27c-.24.04-.44-.02-.6-.15-.17-.16-.26-.36-.3-.6l-2.3-9.6-2.3 9.6c-.04.24-.12.44-.28.6-.2.13-.4.2-.62.16zm19.2.38c-.82 0-1.5-.07-2.3-.25-.65-.13-1.14-.3-1.72-.6-.2-.1-.37-.23-.45-.42-.08-.14-.12-.28-.12-.43v-.75c0-.3.13-.46.33-.46h.3l.36.16c.57.23 1.02.4 1.6.5.6.14 1.14.2 1.8.2.78.05 1.48-.1 2.18-.5.5-.3.78-.8.73-1.4.06-.4-.1-.76-.35-1.04-.46-.4-.95-.65-1.52-.8l-2.18-.68c-.94-.25-1.72-.73-2.38-1.5-.5-.65-.74-1.35-.74-2.18 0-.6.12-1.08.4-1.6.3-.5.63-.9 1.08-1.22.5-.38 1-.6 1.6-.78.67-.18 1.2-.26 1.9-.25.33-.03.6-.03.98 0l1 .16.8.22.67.26c.16.1.28.22.45.38.08.15.12.3.12.5v.7c0 .32-.12.47-.37.47-.2-.03-.37-.08-.57-.18-.95-.42-1.8-.6-2.88-.58-.7-.04-1.3.1-1.97.4-.5.3-.74.8-.7 1.36 0 .4.13.76.46 1.05.48.4.97.65 1.6.82l2.08.67c.95.24 1.68.7 2.3 1.44.5.64.7 1.3.7 2.1 0 .63-.12 1.17-.37 1.73-.28.55-.6.95-1.1 1.32-.5.4-1 .66-1.6.84-.74.23-1.4.33-2.14.34zM835.66 237.48c-5.6 3.82-11.37 5.58-18.16 5.56-8.54.05-15.82-2.74-22.16-8.45-.5-.42 0-1 .5-.68 7.06 4.05 14.02 5.9 22.2 5.9 6.1-.04 11.28-1.1 16.92-3.47.82-.35 1.5.55.7 1.13z" stroke="#fff" stroke-opacity="0" fill="#fff"/><path d="M837.7 235.2c-.63-.82-4.15-.38-5.74-.2-.47 0-.54-.36-.1-.66 2.8-1.98 7.4-1.4 8-.74.58.67-.15 5.28-2.8 7.5-.4.32-.77.13-.6-.3.55-1.52 1.87-4.83 1.25-5.6z" stroke="#fff" stroke-opacity="0" fill="#fff"/><use xlink:href="#D" transform="matrix(1,0,0,1,860.5501466092855,220) translate(0 14.222222222222223)"/><use xlink:href="#E" transform="matrix(1,0,0,1,860.5501466092855,220) translate(45.333333333333336 14.222222222222223)"/><path d="M1024.4 481.3l-5 2.38v67.1l5 2.37 20.34-34.2-20.33-37.64z" fill="#9d5025"/><path d="M1036.1 550.56l-11.7 2.6V481.3l11.7 2.53v66.73z" fill="#f58536"/><path d="M1029.95 478.68l6.17-2.9 29.3 44.43-29.3 38.47-6.17-2.9v-77.1z" fill="#9d5025"/><path d="M1050.7 554.78l-14.58 3.9v-82.9l14.6 3.9v75.1z" fill="#f58536"/><path d="M1043 472.53l7.73-3.68 43.22 56.2-43.22 40.55-7.74-3.68v-89.4z" fill="#9d5025"/><path d="M1069.45 559.12l-18.73 6.48v-96.75l18.73 6.48v83.8z" fill="#f58536"/><path d="M1059.46 464.7l10-4.7 46.76 60.44-46.77 54.03-10-4.7V464.7z" fill="#9d5025"/><path d="M1119.54 550.78l-50.1 23.7V460l50.1 23.7v67.08z" fill="#f58536"/><use xlink:href="#F" transform="matrix(1,0,0,1,1019.3888504722086,574.4713283575973) translate(8.737962962962989 19.733333333333324)"/><use xlink:href="#G" transform="matrix(1,0,0,1,1019.3888504722086,574.4713283575973) translate(3.907407407407433 49.333333333333314)"/><use xlink:href="#H" transform="matrix(1,0,0,1,1019.3888504722086,574.4713283575973) translate(16.309259259259278 78.9333333333333)"/><use xlink:href="#I" transform="matrix(1,0,0,1,1019.3888504722086,574.4713283575973) translate(30.012962962962973 78.9333333333333)"/><use xlink:href="#J" transform="matrix(1,0,0,1,1019.3888504722086,574.4713283575973) translate(14.253703703703728 108.53333333333327)"/><path d="M179.8 276.4v.18l.9.85.3 1.03.6 1.1v2.24l-.3 1.1-.3 1.1-.6.96-.6.85-.3.2-.9.72-.88.55-1.2.36-1.18.12h-.9l-1.18-.18-1.2-.42-.88-.55-.9-.8-.58-.72-1.8-1.7-1.18-1.82-1.2-1.94-1.18-2-.9-2.07-.58-2.2-.6-2.17-.6-2.2-.3-2.3v-3.34l.3-2.3.3-2.25.3-2.26.9-2.12.6-2.13 1.18-2.07 1.2-1.95 1.18-1.94 1.48-1.76 1.5-1.7v-.12l.88-.73 1.2-.55.88-.36 1.2-.18 1.18.06 1.2.18.88.43 1.2.55.88.73v.18l.9.9.3 1 .6 1.08v2.24l-.3 1.16-.3 1.03-.6.97-.6.9-1.48 1.47-1.2 1.9-.88 2-.9 2.18-.6 2.2v4.24l.6 2.2.6 2.17.9 2.06 1.48 1.88 1.48 1.76z" stroke="#000" stroke-opacity="0" stroke-width=".07" fill="#f3e705"/><path d="M179.8 252.35l-.3.12-.9.73-.88.55-1.2.36-1.18.2h-.9l-1.18-.25-1.2-.42-.88-.55-.9-.73-.3-.18-.58-.85-.6-1.03-.3-1.1-.3-1.1v-1.15l.3-1.15.6-1.04.3-.97.9-.92.58-.67 1.8-1.5 1.77-1.4 2.08-1.22 2.08-1.03 2.1-.9 2.07-.8 2.1-.6 2.36-.43 2.08-.24 2.1-.06zm12.78-18.33h.3l2.08.18 2.38.3 2.08.5 2.38.65 2.08.85 2.08.98 1.78 1.15 2.1 1.28 1.77 1.46 1.5 1.52.3.18.6.9.58 1 .3 1.08.3 1.1v1.14l-.3 1.16-.3 1.03-.6.97-.9.9v.13l-.88.73-.9.55-1.18.36-1.2.2h-1.18l-1.18-.25-.9-.36-.9-.62-.88-.73-1.5-1.27-2.07-1.34-1.77-1.03-2.38-.72-2.08-.48-2.38-.13-1.8.13-2.37.36-2.08.73-2.08.96-1.78 1.28-1.8 1.5z" stroke="#000" stroke-opacity="0" stroke-width=".07" fill="#65bbe7"/><path d="M191.7 294.74h-.9l-2.38-.18-2.38-.3-2.08-.55-2.08-.66-2.08-.8-2.08-.96-2.08-1.16-1.78-1.27-1.8-1.46-1.77-1.6-.3-.1-.6-.92-.6-.97-.3-1.1-.3-1.14v-1.15l.3-1.1.6-1.08.3-.97.9-.85v-.18l.88-.67 1.2-.55.88-.36 1.2-.18h1.18l1.2.24.88.36 1.2.6.88.74 1.5 1.27 1.77 1.34 2.08 1.04 2.08.73 2.08.43 2.4.18 2.07-.12 2.08-.43 2.08-.67 2.1-.97 2.07-1.28 1.78-1.52zm12.18-18.34v-.18l.9-.67 1.18-.55.9-.36 1.18-.18h1.2l1.18.24.9.36.88.6.9.74.3.12.6.9.58 1.04.3 1.04.3 1.15v1.15l-.3 1.1-.3 1.1-.6.96-.9.85-.58.74-1.78 1.52-1.8 1.33-2.07 1.27-1.78 1.03-2.08.9-2.4.8-2.07.55-2.08.42-2.38.3-2.38.07z" stroke="#000" stroke-opacity="0" stroke-width=".07" fill="#f03e48"/><path d="M179.8 252.35l-.9.73-1.18.55-.9.42-1.18.2-1.2.05-1.18-.2-.9-.35-1.18-.55-.9-.73v-.12l-.88-.9-.3-.98-.6-1.03-.3-1.16v-1.15l.3-1.1.3-1.08.6-.98.6-.9.3-.2.88-.72.9-.54 1.18-.42 1.2-.18.88-.06 1.2.18 1.18.36.9.55.88.73.3.12.6.9.6.98.3 1.04.3 1.15v2.25l-.6 1.1-.3.96-.9.9v.2z" stroke="#000" stroke-opacity="0" stroke-width=".07" fill="#3781be"/><path d="M179.8 285.8l-.9.8-1.18.55-.9.42-1.18.18h-1.2l-1.18-.12-.9-.36-1.18-.55-.9-.73v-.2l-.88-.84-.3-.97-.6-1.1-.3-1.1v-1.15l.3-1.1.3-1.1.6-1.02.6-.85.3-.18.88-.73.9-.6 1.18-.37 1.2-.24h.88l1.2.18 1.18.36.9.55.88.67.3.18.6.85.6 1.03.3 1.03.3 1.17v2.24l-.6 1.1-.3.98-.9.9v.13z" stroke="#000" stroke-opacity="0" stroke-width=".07" fill="#d03634"/><path d="M342.7 249.86l1.78.3 1.5.5 1.47.6 1.2.67 1.18.8.9.84.9.97.58 1.15.6 1.27.6 1.52.6 1.8.3 2.2v3.38l-.6.62-.6.3-1.2.13h-19l.3 1.2.58 1.04.6.9 1.18.8 1.2.73 2.07.55 2.08.18 3.28-.42 1.8-.72.58-.2.3-.17.6-.35.6-.12.58.12.6.36.6.62.6.6.58.6.6.68.6.85-.3.67-.3.5-.9.53v.12l-2.08 1.16-2.97 1.03-2.97.55-2.08.13-2.08-.12-2.08-.3-1.5-.48-1.48-.55-1.48-.73-1.2-.73-.88-.84-.9-.97-.9-1.04-.58-1.15-.6-1.33-.6-1.4-.3-1.64-.3-1.88v-3.46l.3-1.77.3-1.58.6-1.4.9-1.33.6-1.16 1.18-1.03.9-.97 1.18-.85 1.2-.72 1.47-.67 1.5-.47 1.77-.37 2.1-.12h.58zm-4.46 6.38l-1.5.6-1.47.74-.9.97-.9 1.2-.28 1.23h14.25l-.6-1.4-.58-1.1-.6-.84-1.2-.73-1.47-.6-2.38-.24h-.3zm-74.6-6.25l1.77.1 1.8.3 1.48.44 1.5.6 1.18.8 1.48.84.9 1.03 1.18 1.1.9 1.22.6 1.34.58 1.45.6 1.6.3 1.7v3.7l-.3 1.76-.6 1.64-.6 1.46-.58 1.33-.9 1.2-.9 1.1-1.18.97-1.2.85-1.47.73-1.2.6-1.77.43-1.8.3-1.77.13-2.08-.1-1.5-.26-1.77-.48-1.5-.6-1.18-.74-1.2-.8-1.18-.96-.9-1.1-.88-1.2-.6-1.34-.6-1.46-.58-1.58-.3-1.76v-3.77l.3-1.76.3-1.6.6-1.5.88-1.34.9-1.2.88-1.1 1.2-1.04 1.18-.85 1.2-.73 1.48-.6 1.78-.43 1.5-.3 2.07-.1zm-1.2 6.54l-1.5.37-1.18.55-.9.85-1.18 1.04-.6 1.4-.6 1.63-.28 2 .3 1.22.3 1.8.6 1.47.88 1.15 1.2.9 1.18.68 1.18.43 1.8.12.88-.06 1.5-.32 1.18-.6 1.18-.8.9-1.02.9-1.34.3-1.64.28-2v-1.22l-.6-1.7-.6-1.52-.88-1.27-1.2-.97-1.18-.67-1.2-.43-1.47-.12zm163.8-5.77l.58.6.6.92v12.68l.3 2.2.6 1.57.58 1.2.9.86 1.18.68 1.2.43 1.78.2 1.18-.2 1.5-.42 1.18-.73.9-.97.88-1.27.6-1.57.3-1.83v-12.26l.3-.97.6-.8.88-.42.6-.12h2.37l1.2.24.58.6.6.92v23.49l-.3 1.02-.6.73-.88.5-.6.05h-2.08l-.9-.24-.88-.6-.3-.86v-.55l-.3-1.2-2.4 2-1.77.96-1.78.62-2.38.3h-.6l-1.78-.06-1.2-.24-1.2-.36-1.18-.5-.9-.6-.88-.73-.9-.85-.88-1.03-.9-1.2-.6-1.47-.58-1.76-.3-2-.3-2.3v-12.58l.3-.97.6-.8.9-.42.58-.12h2.38zm31.2-6.98l.6.6.6.9v30.49l-.3.96-.6.8-.9.48-.6.06h-2.37l-.9-.24-.88-.6-.6-.86V245.86l.3-.98.6-.8.88-.4.6-.13h2.37zm-42.8-4.93H417l.9.25.6.6.6.85v2.07l-.3 1.03-.6.73-.6.48-.6.13h-2.07l-.9.13-.88.36-.6.48-.6.8-.6 1.08-.28 1.82v.97h5.05l.9.2.6.6.58.9v2.2l-.3.96-.6.8-.6.5-.58.1h-5.05v19.86l-.9.8-.6.48-.58.06h-2.7l-.88-.24-.9-.6-.3-.86-.3-.6v-26.12l.3-2.12.3-1.83.6-1.5.9-1.3.9-1.08.88-.9 1.2-.74 1.17-.6 1.5-.48 1.48-.2.3-.05h.6zM297.2 250.23l1.48.24 1.2.37 1.18.48.9.67.9.72.88.9.9 1.04.88 1.28.6 1.45.6 1.75.3 1.95.28 2.18v12.51l-.3.96-.6.8-.88.48-.6.06h-2.37l-.9-.24-.88-.6-.6-.86v-12.7l-.3-2.18-.3-1.64-.9-1.15-.9-.9-1.18-.68-1.2-.42-1.47-.13-1.5.13-1.47.48-1.2.68-.9.97-.88 1.34-.6 1.57-.3 1.82V275.8l-.3 1.02-.58.73-.9.5-.6.05h-2.36l-.9-.24-.9-.6-.3-.92-.28-.55v-23.02l.3-.97.6-.78.88-.43.6-.07h2.08l.9.18.88.62.3.9.3.56v1.2l2.37-2 2.07-1.02 2.08-.6 2.08-.25h.3zm76.4 0l1.18.24 1.5.37.88.48 1.2.67.88.72.9.9.88 1.04.9 1.28.6 1.45.58 1.75.3 1.95.3 2.18v12.51l-.3.96-.6.8-.88.48-.6.06h-2.38l-1.2-.24-.58-.6-.6-.86v-12.7l-.3-2.18-.6-1.64-.58-1.15-.9-.9-1.18-.68-1.2-.42-1.77-.13-1.5.13-1.18.48-1.2.68-.88 1.03-.9 1.3-.6 1.57-.3 1.82V275.8l-.3 1.02-.6.73-.88.5-.6.05h-2.37l-1.2-.24-.58-.6-.6-.92v-23.57l.3-.97.6-.78.9-.43.58-.07h2.08l.9.18.88.62.3.9v.56l.3 1.2 2.4-2 2.07-1.02 1.78-.6 2.08-.25h.3zm19.02-6.38l.9.6.3.86v5.29h5.34l.9.24.88.6.6.9v2.14l-.3.97-.6.8-.9.4-.58.08h-5.35v11.6l.3 1.33.3.8.3.53.58.42.9.3 1.2.13h.88l1.2.24.6.6.58.85v2.12l-.3 1.03-.6.73-.88.5-.6.05h-2.98l-2.07-.3-1.48-.5-1.2-.54-.9-.73-.88-.84-.6-1.1-.6-1.33-.58-1.76v-24.95l.3-1.04.58-.8.9-.4.3-.07h2.67zm-76.1 0l.6.6.6.86v5.29h5.34l.9.24.88.6.3.9.3.56v1.58l-.3.97-.6.8-.9.4-.58.08h-5.35v11.6l.3 1.33.3.8.3.53.58.42.6.3 1.2.13h1.2l.88.24.9.6.3.85.3.6v1.52l-.3 1.03-.6.73-.9.5-.6.05h-1.48l-2.97-.18-1.78-.5-1.2-.54-.9-.6-.88-.73-.6-.9-.6-1.1-.58-1.4-.3-2.07-.3-1.64v-22.4l.3-1.04.6-.8.88-.4.6-.07h2.37zm-73.42 26.78l.9-.6.58-.13h.3v.06l.6.25 1.48 1.46 1.8 1.9v.35l.28.3v.26l-.3.18-.3.3v.12l-2.67 1.9-2.1.96-1.77.54-2.68.25h-.6l-1.77-.05-1.5-.3-1.77-.43-1.18-.55-1.5-.67-1.18-.8-1.2-.9-.88-1.03-.9-1.1-.6-1.2-.88-1.34-.3-1.4-.6-1.52v-1.63l-.3-1.7v-.6l.6-2.62.6-2.24.9-1.94 1.18-1.7 1.5-1.45v-.18l2.07-1.27 1.78-.97 2.4-.73 2.67-.3h1.2l3.85.54 1.2.42.58.3.9.3.6.3.58.43.6.37.6.73.3.36v.98l-.3.55-1.2 1.2-.6.56-.3.48-.58.54-.6.37-.6-.07-.6-.25-2.07-1.1-2.08-.48-1.78-.06-.9.2-.6.23-.58.24-.6.38-.6.36-.6.5-.6.47-.3.62-.58.73-.3.8-.3.84v.9l-.3.97V265.7l.3.98.3.85.3.73.3.73.6.6.3.54.58.43.6.42.6.36.6.3.58.25.9.2.88.05.6.06 1.78-.23 1.8-.8.88-.54z" stroke="#000" stroke-opacity="0" stroke-width=".07" fill="#282b34"/><path d="M140 220.53c0-4.42 3.58-8 8-8h346.22c4.42 0 8 3.58 8 8V343.9c0 4.42-3.58 8-8 8H148c-4.42 0-8-3.58-8-8z" fill="#fff" fill-opacity="0"/><path d="M141.47 216.16l.87-1.3 1.3-.86m2.83-1.16l1.53-.3h2m4.04 0h4.02m4.03 0h4.02m4.02 0h4.03m4.02 0h4.02m4.02 0h4.03m4.03 0h4.02m4.03 0h4.02m4.03 0h4.03m4.02 0h4.03m4.02 0h4.03m4.02 0h4.03m4.03 0h4.03m4.03 0h4.02m4.03 0h4.03m4.03 0h4.03m4 0h4.04m4.02 0h4.03m4.02 0h4.02m4.03 0H303m4.02 0h4.02m4.03 0h4.03m4.02 0h4.03m4.02 0h4.03m4.02 0h4.03m4.03 0h4.02m4.03 0h4.02m4.03 0h4.02m4.03 0h4.03m4.02 0h4.03m4.03 0h4.03m4.03 0h4m4.04 0h4.02m4.03 0h4m4.04 0h4.03m4.02 0h4.02m4.02 0h4.03m4.02 0h4.02m4.03 0h4.02m4.03 0h4.02m4.03 0h4.03m4.02 0h4.03m4.02 0h4.03m4.02 0h2.02l1.53.3m2.83 1.16l1.3.87.87 1.3m1.16 2.83l.32 1.53v2.05m0 4.12v4.1m0 4.12v4.1m0 4.12v4.12m0 4.1v4.12m0 4.1v4.13m0 4.12v4.1m0 4.12v4.12m0 4.1v4.12m0 4.1v4.13m0 4.12v4.1m0 4.12v4.1m0 4.13v4.1m0 4.12v4.1m0 4.12v4.1m0 4.12v2.06l-.3 1.53m-1.17 2.83l-.88 1.3-1.3.87m-2.82 1.16l-1.53.3h-2.02m-4.02 0h-4.03m-4.02 0h-4.03m-4.02 0h-4.03m-4.03 0H460m-4.03 0h-4.02m-4.03 0h-4.03m-4.03 0h-4.03m-4.02 0h-4.03m-4.03 0h-4.03m-4.03 0h-4m-4.04 0h-4.02m-4.03 0h-4m-4.04 0h-4.03m-4.02 0h-4.02m-4.02 0h-4.03m-4.03 0h-4.02m-4.03 0h-4.02m-4.03 0h-4.02m-4.03 0h-4.03m-4.02 0h-4.03m-4.02 0h-4.03m-4.02 0h-4.03m-4.03 0h-4.02m-4.03 0h-4.03m-4.03 0h-4.02m-4.03 0h-4.04m-4.02 0h-4.03m-4 0h-4.04m-4.03 0h-4.02m-4.02 0h-4.02m-4.03 0h-4.02m-4.02 0h-4.03m-4.02 0h-4.03m-4.02 0h-4.03m-4.02 0h-4.03m-4.03 0h-4.02m-4.03 0h-4.02m-4.03 0h-4.03m-4.02 0h-4.03m-4.03 0h-4.03m-4.02 0h-4.03m-4.04 0h-4.02m-4.03 0h-2l-1.53-.3m-2.83-1.17l-1.3-.88-.87-1.3m-1.16-2.82l-.3-1.53v-2.06m0-4.1v-4.12m0-4.12v-4.1m0-4.12v-4.1m0-4.13v-4.1m0-4.12v-4.1m0-4.12v-4.1m0-4.12v-4.1m0-4.12v-4.12m0-4.1v-4.12m0-4.1v-4.13m0-4.12v-4.1m0-4.12v-4.12m0-4.1v-4.12m0-4.1v-4.12m0-4.12v-2.05l.3-1.53" stroke="#5a6c86" fill="none"/><path d="M829.55 273.76c0-4.42 3.58-8 8-8h444c4.42 0 8 3.58 8 8V752c0 4.42-3.58 8-8 8h-444c-4.42 0-8-3.58-8-8z" stroke="#248814" fill="#fff" fill-opacity="0"/><path d="M829.55 265.76h56v56h-56v-56z" stroke="#fff" stroke-opacity="0" fill="#248814"/><path d="M861.3 294.06h-1.17v-1.1c-.12-1.73-1.48-3.07-3.2-3.2-1.9-.13-3.54 1.3-3.67 3.2v1.07h-1.18c-.44 0-.8.36-.8.8v6.12c0 .45.36.8.8.8h9.23c.45 0 .8-.35.8-.8v-6.08c0-.45-.35-.8-.8-.8zm-6.4-1.06c.1-1.03 1-1.77 2-1.67.9.08 1.6.76 1.68 1.67v1.06h-3.72zm5.66 7.08h-7.68v-4.42h7.63z" stroke="#fff" stroke-opacity="0" fill="#fff"/><path d="M871.82 291.5c-.08-2.44-1.58-4.47-3.87-5.3-1.58-.46-3.16-.13-4.4.9-.68-1.44-1.47-2.6-2.6-3.75-3.24-3.35-7.94-4.28-12.18-2.4-4.04 1.9-6.4 5.64-6.54 10.06v.72c-3.4.96-5.66 4.07-5.5 7.64v.63c.4 4.27 3.92 7.5 8.2 7.46h26s7.42-.64 7.42-8.1c.04-3.9-2.66-7.2-6.53-7.86zm-.96 14.4h-25.92c-3.46.05-6.3-2.54-6.58-5.97v-.52c-.16-3.04 1.92-5.7 4.9-6.3.4-.1.64-.47.6-.88-.05-.4-.05-.74 0-1.16.08-3.78 2.12-6.94 5.53-8.6 1.24-.57 2.4-.8 3.82-.84 2.62.08 4.87 1.04 6.7 2.94 1.25 1.3 2.04 2.6 2.62 4.3.04.15.12.28.25.36.36.28.86.2 1.1-.16.84-1.18 2.26-1.67 3.63-1.3 1.8.72 2.87 2.4 2.83 4.32-.08.4.2.82.63.9 3.56.36 6.2 3.55 5.8 7.12-.28 3.13-2.7 5.52-5.8 5.85z" stroke="#fff" stroke-opacity="0" fill="#fff"/><use xlink:href="#K" transform="matrix(1,0,0,1,900.5501466092853,285.75920245398765) translate(0 14.4)"/><use xlink:href="#L" transform="matrix(1,0,0,1,900.5501466092853,285.75920245398765) translate(55.5 14.4)"/><use xlink:href="#M" transform="matrix(1,0,0,1,900.5501466092853,285.75920245398765) translate(116.4 14.4)"/><path d="M503.22 282.2h245.83c6.63 0 12 5.38 12 12v192.7c0 6.63 5.38 12 12 12H1003" stroke="#333" fill="none"/><path d="M503.23 282.7h-.5v-1h.5z" fill="#333"/><path d="M1017.77 498.9l-14.27 4.64v-9.27z" stroke="#333" fill="#333"/><path d="M1836.94 771.18c-1.36 0-2.72-1.24-2.72-2.8 0-1.58 1.36-2.92 2.72-2.92 1.7 0 3.06 1.34 3.06 2.9 0 1.47-1.36 2.82-3.06 2.82m0-5.16c-1.02 0-2.04 1-2.04 2.35 0 1.24 1.02 2.24 2.04 2.24 1.36 0 2.38-1 2.38-2.23 0-1.34-1.02-2.35-2.38-2.35m1.7 3.8h-.68l-.68-1.1h-.68v1.1h-.68v-3.13h1.36c.68 0 1.36.44 1.36 1 0 .45-.34.78-.68.9l.68 1.23zm-1.36-1.67c.34 0 .68-.1.68-.45 0-.34-.34-.45-.68-.45h-1.02v1h1.02zm-300.9-2.92h7.48v19.96h12.58v6.4h-20.06v-26.37zm27.88 13.23v-.1c0-7.63 6.12-13.8 14.28-13.8s14.28 6.05 14.28 13.68v.1c0 7.53-6.12 13.7-14.28 13.7s-14.28-5.95-14.28-13.58m21.08 0v-.1c0-3.82-2.72-7.18-6.8-7.18s-6.8 3.36-6.8 7.06v.1c0 3.94 2.72 7.2 6.8 7.2s6.8-3.26 6.8-7.08m16.66 1.57v-14.8h7.48v14.58c0 3.94 1.7 5.62 4.76 5.62 3.06 0 4.76-1.68 4.76-5.4v-14.9h7.48v14.7c0 8.5-4.76 12.2-12.24 12.2s-12.24-3.7-12.24-12m35.7-14.8h10.2c9.52 0 14.96 5.4 14.96 13.02v.1c0 7.64-5.44 13.25-14.96 13.25h-10.2v-26.37zm10.54 19.86c4.42 0 7.14-2.35 7.14-6.73v-.1c0-4.16-2.72-6.74-7.14-6.74h-3.06v13.47l3.06.1zm25.5-19.85h21.08v6.4h-13.6v4.48h12.58v6.07h-12.58v9.42h-7.48v-26.37zm31.28 0h7.48v19.96h12.92v6.4h-20.4v-26.37zm39.44-.22h7.14l11.22 26.6H1755l-1.7-4.72h-10.2l-2.04 4.7h-7.48l10.88-26.57zm6.46 16.16l-2.72-7.4-3.06 7.4h5.78zm21.42-15.93h12.58c4.08 0 6.8 1 8.84 2.8 1.36 1.58 2.38 3.6 2.38 6.17v.12c0 4.03-2.38 6.72-5.44 8.18l6.12 9.2h-8.5l-5.1-7.96h-3.4v7.96h-7.48v-26.47zm12.24 12.56c2.72 0 4.08-1.24 4.08-3.04v-.1c0-2.14-1.7-3.15-4.08-3.15h-4.76v6.3h4.76zm22.1-12.57h21.42v6.17h-14.28v4.04h12.92v5.72h-12.92v4.26h14.28v6.17h-21.42v-26.37zM1520.4 781.5c-1.02 2.35-3.4 4.03-6.12 4.03-4.08 0-6.8-3.36-6.8-7.18v-.1c0-3.82 2.72-7.07 6.8-7.07 3.06 0 5.44 1.9 6.46 4.48h7.48c-1.02-6.4-6.8-11-13.94-11-8.16 0-14.28 6.07-14.28 13.7v.1c0 7.63 6.12 13.7 14.28 13.7 7.14 0 12.58-4.5 13.94-10.56l-7.82-.1z" stroke="#000" stroke-opacity="0" stroke-width=".23" fill="#404041"/><path d="M1819.26 723.06l-20.4-11.55-3.4-1.56-82.96.56v42.06h106.76v-29.5z" stroke="#000" stroke-opacity="0" stroke-width=".23" fill="#fff"/><path d="M1782.2 748.63c1.02-3.36.68-6.5-1.02-8.86-1.36-2.13-4.08-3.25-7.14-3.47l-58.14-.68c-.34 0-.68-.22-1.02-.44v-1c0-.57.68-1.02 1.36-1.02l58.82-.8c6.8-.32 14.28-5.93 17-12.77l3.4-8.65v-1.23c-3.74-16.94-19.04-29.72-37.06-29.72-17 0-31.28 10.88-36.38 25.8-3.4-2.36-7.48-3.7-12.24-3.26-7.82.8-14.28 7.18-15.3 15.25 0 2 0 4.14.68 5.94-13.26.45-23.8 11.1-23.8 24.33 0 1.24 0 2.36.34 3.6 0 .55.34 1 1.02 1h107.44c.68 0 1.02-.45 1.36-1l.68-3.04z" stroke="#000" stroke-opacity="0" stroke-width=".23" fill="#f38020"/><path d="M1800.9 711.5h-1.7c-.34 0-.68.35-.68.7l-2.38 7.84c-1.02 3.36-.68 6.5 1.02 8.74 1.7 2.13 4.08 3.37 7.14 3.6l12.58.67c.34 0 .68.22.68.44.34.33.34.78.34 1-.34.56-.68 1-1.36 1l-12.92.8c-7.14.33-14.62 5.94-17.34 12.78l-1.02 2.47c0 .45.34.9.68.9h44.54c.34 0 1.02-.34 1.02-.8.68-2.8 1.36-5.6 1.36-8.62 0-17.4-14.28-31.52-31.96-31.52" stroke="#000" stroke-opacity="0" stroke-width=".23" fill="#faae40"/><path d="M894.78 368c0-4.42 3.58-8 8-8H1252c4.42 0 8 3.58 8 8v72.57c0 4.42-3.58 8-8 8H902.78c-4.42 0-8-3.58-8-8z" fill="none"/><use xlink:href="#N" transform="matrix(1,0,0,1,894.7750733046424,360) translate(32.36790123456791 20.977777777777778)"/><use xlink:href="#O" transform="matrix(1,0,0,1,894.7750733046424,360) translate(61.50370370370371 20.977777777777778)"/><use xlink:href="#P" transform="matrix(1,0,0,1,894.7750733046424,360) translate(126.91358024691358 20.977777777777778)"/><use xlink:href="#Q" transform="matrix(1,0,0,1,894.7750733046424,360) translate(225.90246913580248 20.977777777777778)"/><use xlink:href="#R" transform="matrix(1,0,0,1,894.7750733046424,360) translate(17.83641975308643 52.44444444444444)"/><use xlink:href="#c" transform="matrix(1,0,0,1,894.7750733046424,360) translate(86.23271604938273 52.44444444444444)"/><use xlink:href="#S" transform="matrix(1,0,0,1,894.7750733046424,360) translate(169.26975308641977 52.44444444444444)"/><use xlink:href="#T" transform="matrix(1,0,0,1,894.7750733046424,360) translate(290.03765432098766 52.44444444444444)"/><use xlink:href="#U" transform="matrix(1,0,0,1,894.7750733046424,360) translate(31.566666666666663 83.91111111111111)"/><use xlink:href="#V" transform="matrix(1,0,0,1,894.7750733046424,360) translate(124.80123456790122 83.91111111111111)"/><use xlink:href="#W" transform="matrix(1,0,0,1,894.7750733046424,360) translate(242.80123456790122 83.91111111111111)"/><use xlink:href="#X" transform="matrix(1,0,0,1,894.7750733046424,360) translate(283.5185185185185 83.91111111111111)"/><path d="M1120.04 521.24H1348c6.63 0 12 5.37 12 12v190.83c0 6.63 5.37 12 12 12h111.62" stroke="#333" fill="none"/><path d="M1120.05 521.74h-.5v-1h.5z" fill="#333"/><path d="M1498.38 736.07l-14.26 4.64v-9.26z" stroke="#333" fill="#333"/><path d="M2109.1 738.4h-26.9c-1.22 0-2.2-1-2.2-2.22v-3.3c0-12.3 8.08-22.6 20.08-25.5.55-.12 1.06-.05 1.57.23 3.53 1.9 7.36 1.9 10.9 0 .5-.27 1-.34 1.57-.2 3.14.77 5.74 1.88 8.42 3.7l-2.47 3.65c-2-1.3-3.87-2.17-6.2-2.8-4.47 2.05-9.07 2.05-13.54 0-9.57 2.68-15.9 11.03-15.9 20.94v1.08h24.67z" stroke="#fff" stroke-opacity="0" fill="#666"/><path d="M2107.06 713.34c-8 0-14.48-6.47-14.48-14.45 0-8 6.5-14.46 14.48-14.46 8-.1 14.5 6.33 14.6 14.27.06 5.54-2.73 10.25-7.6 12.85-2.23 1.24-4.4 1.8-7 1.8zm0-24.5c-5.58 0-10.14 4.47-10.17 10.05 0 3.77 1.9 7 5.25 8.8 3.17 1.7 6.66 1.7 9.83 0 3.37-1.82 5.32-5.1 5.26-8.96-.06-5.52-4.62-9.94-10.18-9.88zM2181.54 738.4h-26.9v-4.42h24.68v-1.1c0-9.92-6.35-18.27-15.9-20.94-4.48 2.08-9.08 2.08-13.56 0-2.34.65-4.26 1.55-6.26 2.95l-2.52-3.64c2.7-1.87 5.3-3.05 8.44-3.85.56-.12 1.1-.05 1.62.23 3.5 1.9 7.38 1.9 10.92 0 .5-.28 1.02-.35 1.57-.22 11.98 2.9 20.08 13.2 20.08 25.5v3.28c0 1.2-.97 2.18-2.16 2.2z" stroke="#fff" stroke-opacity="0" fill="#666"/><path d="M2156.6 713.34c-8.06 0-14.57-6.55-14.57-14.6 0-8.03 6.57-14.52 14.62-14.52 8.06 0 14.57 6.55 14.57 14.6 0 5.46-2.78 10.12-7.6 12.74-2.27 1.23-4.46 1.78-7.03 1.78zm0-24.5c-5.58-.02-10.13 4.46-10.16 10.06-.03 3.78 1.9 7 5.25 8.8 3.14 1.7 6.65 1.7 9.83 0 3.4-1.82 5.37-5.14 5.3-9-.1-5.54-4.7-9.97-10.24-9.85zM2167.1 787.93h-70.58c-1.2 0-2.17-.97-2.17-2.2v-4.68c-.08-16.96 11.16-31.22 27.65-35.23.6-.17 1.12-.08 1.64.17 5.25 2.82 11.02 2.82 16.34 0 .45-.26.97-.35 1.57-.18 16.56 3.97 27.8 18.23 27.72 35.23v4.7c0 1.2-.97 2.18-2.17 2.18zm-68.33-4.4h66.08v-2.48c0-14.6-9.44-26.87-23.6-30.67-6.22 3-12.73 3-18.95 0-14.16 3.8-23.53 16.07-23.53 30.67z" stroke="#fff" stroke-opacity="0" fill="#666"/><path d="M2131.88 752.46c-3.5 0-6.47-.75-9.57-2.42-9.6-5.27-13.15-17.28-7.9-26.92 5.28-9.6 17.33-13.12 26.98-7.9 9.62 5.28 13.16 17.3 7.9 26.93-1.9 3.5-4.4 6-7.9 7.9-3.06 1.66-6.04 2.4-9.5 2.4zm0-34.7c-5.76-.07-10.73 2.82-13.5 7.9-3.98 7.33-1.28 16.53 6.07 20.54 4.77 2.54 10.02 2.54 14.8 0 5.1-2.78 8.06-7.73 7.98-13.52-.12-8.33-7-15.03-15.35-14.9z" stroke="#fff" stroke-opacity="0" fill="#666"/><path d="M2182.13 738.4h-51.5c-.87 0-1.58-.72-1.58-1.6v-3.43c-.06-12.38 8.14-22.78 20.17-25.7.44-.13.82-.07 1.2.12 3.83 2.05 8.04 2.05 11.92 0 .33-.2.7-.26 1.15-.13 12.07 2.9 20.27 13.3 20.2 25.7v3.42c0 .88-.7 1.6-1.57 1.6zm-49.86-3.2h48.22v-1.83c0-10.65-6.9-19.6-17.23-22.38-4.54 2.18-9.3 2.18-13.83 0-10.33 2.76-17.17 11.72-17.17 22.37z" stroke="#fff" stroke-opacity="0" stroke-width=".73" fill="#fff" fill-opacity="0"/><path d="M2133.08 738.4h-51.5c-.87 0-1.58-.72-1.58-1.6v-3.43c-.05-12.38 8.14-22.78 20.17-25.7.44-.13.82-.07 1.2.12 3.83 2.05 8.04 2.05 11.92 0 .32-.2.7-.26 1.14-.13 12.08 2.9 20.28 13.3 20.22 25.7v3.42c0 .88-.7 1.6-1.58 1.6zm-49.85-3.2h48.2v-1.83c0-10.65-6.88-19.6-17.2-22.38-4.55 2.18-9.3 2.18-13.84 0-10.34 2.76-17.17 11.72-17.17 22.37z" stroke="#fff" stroke-opacity="0" stroke-width=".73" fill="#fff" fill-opacity="0"/><g><use xlink:href="#Y" transform="matrix(1,0,0,1,2050,796.9291795824869) translate(47.25925925925927 21.33333333333333)"/></g><path d="M2079.5 736.07h-231.13" stroke="#333" fill="none"/><path d="M2080 736.57h-.5v-1h.5z" fill="#333"/><path d="M1833.6 736.07l14.27-4.63v9.27z" stroke="#333" fill="#333"/><path d="M1028.53 880.82l-7.98 4V955l7.98 3.98 19.54-39.1-19.54-39.08z" fill="#8c3123"/><path d="M1070.03 948.9L1028.5 959V880.8l41.53 10.08 19.63 29.08-19.63 28.92z" fill="#e05243"/><path d="M1070.05 948.9l41.53 10.1 7.16-38.08-7.16-40.1-41.53 10.08v58z" fill="#8c3123"/><path d="M1111.56 880.82l7.98 4V955l-7.98 3.98v-78.18z" fill="#e05243"/><path d="M1051.93 932.84l18.12 2.33 14.35-15.14-14.35-15.14-18.12 2.26v25.68z" fill="#8c3123"/><path d="M1088.15 894.74l-18.1 3.3-18.12-3.3 18.1-34.74 18.12 34.74z" fill="#5e1f18"/><path d="M1088.15 945.25l-18.1-3.35-18.12 3.35 18.1 34.74 18.12-34.75z" fill="#f2b0a9"/><path d="M1088.16 894.75l-18.1-4.48V860l18.1 9.07v25.68z" fill="#e05243"/><path d="M1051.93 894.75l18.1-4.48V860l-18.1 9.07v25.68z" fill="#8c3123"/><path d="M1070.05 980l18.1-9.08v-25.68l-18.1 4.48V980z" fill="#e05243"/><path d="M1070.04 980l-18.1-9.08v-25.68l18.1 4.48V980z" fill="#8c3123"/><path d="M1088.16 932.84l-18.1 2.33V904.9l18.1 2.26v25.68z" fill="#e05243"/><g><use xlink:href="#Z" transform="matrix(1,0,0,1,1020.5501466092855,980) translate(3.0249999999999986 14.4)"/><use xlink:href="#aa" transform="matrix(1,0,0,1,1020.5501466092855,980) translate(73.975 14.4)"/></g><path d="M258.63 480c-33.12 0-60 26.88-60 60 0 33.24 26.88 60 60 60 33.24 0 60-26.88 60-60 0-33.24-26.76-60-60-60zm15.84 112.08V582c0-4.08-2.28-7.56-5.4-9.84h.6c5.76-.6 10.68-2.4 10.68-2.4s7.32-2.28 11.4-6.96c4.2-5.16 5.4-12.36 5.4-12.36s1.2-7.92 0-14.28c-1.2-5.88-6-10.32-6-10.32s1.56-4.2 1.32-8.28c0-4.08-1.92-8.16-1.92-8.16s-3.48-.36-7.32 1.2c-4.44 1.92-9.48 5.4-9.48 5.4s-3.48-1.2-7.56-1.56c-3.73-.72-8.17-.72-8.17-.72s-4.44 0-8.28.72c-4.08.6-7.56 1.56-7.56 1.56s-5.05-3.48-9.5-5.4c-3.7-1.56-7.2-1.2-7.2-1.2s-1.9 4.08-1.9 8.16c0 4.2 1.2 8.28 1.2 8.28s-4.33 4.08-5.9 10.32c-1.67 6.36 0 14.28 0 14.28s.85 7.2 5.3 12.36c4.2 4.68 11.4 6.96 11.4 6.96s5.03 1.8 10.67 2.4h.96c-2.16 2.28-4.44 5.76-4.44 9.84v10.08c-22.33-6.6-38.53-27.48-38.53-52.08 0-30 24.36-54.24 54.36-54.24S313.35 510 313.35 540c0 24.6-16.44 45.48-38.88 52.08z" stroke="#000" stroke-opacity="0" fill="#0078d7"/><g><use xlink:href="#ab" transform="matrix(1,0,0,1,168.62758173145335,609) translate(22.142901234567915 21.511111111111106)"/><use xlink:href="#ac" transform="matrix(1,0,0,1,168.62758173145335,609) translate(74.35216049382717 21.511111111111106)"/></g><path d="M319.1 539.04h694.46" stroke="#333" fill="none"/><path d="M319.1 539.54h-.5l-.03-1h.53z" fill="#333"/><path d="M1028.33 539.04l-14.27 4.64v-9.27z" stroke="#333" fill="#333"/><path d="M1120.04 527.24h27.5c6.63 0 12 5.37 12 12V918c0 6.63-5.37 12-12 12h-11.62" stroke="#333" fill="none"/><path d="M1120.05 527.74h-.5v-1h.5z" fill="#333"/><path d="M1121.16 930l14.26-4.64v9.28z" stroke="#333" fill="#333"/><defs><path d="M155-56V0h-30v-56H8v-25l114-167h33v167h35v25h-35zm-30-156c-27 46-58 90-88 131h88v-131" id="ad"/><path d="M33 0v-38h34V0H33" id="ae"/><g id="a"><use transform="matrix(0.0728395061728395,0,0,0.0728395061728395,0,0)" xlink:href="#ad"/><use transform="matrix(0.0728395061728395,0,0,0.0728395061728395,14.5679012345679,0)" xlink:href="#ae"/></g><path d="M185-189c-5-48-123-54-124 2 14 75 158 14 163 119 3 78-121 87-175 55-17-10-28-26-33-46l33-7c5 56 141 63 141-1 0-78-155-14-162-118-5-82 145-84 179-34 5 7 8 16 11 25" id="af"/><path d="M59-47c-2 24 18 29 38 22v24C64 9 27 4 27-40v-127H5v-23h24l9-43h21v43h35v23H59v120" id="ag"/><path d="M141-36C126-15 110 5 73 4 37 3 15-17 15-53c-1-64 63-63 125-63 3-35-9-54-41-54-24 1-41 7-42 31l-33-3c5-37 33-52 76-52 45 0 72 20 72 64v82c-1 20 7 32 28 27v20c-31 9-61-2-59-35zM48-53c0 20 12 33 32 33 41-3 63-29 60-74-43 2-92-5-92 41" id="ah"/><path d="M24-231v-30h32v30H24zM24 0v-190h32V0H24" id="ai"/><path d="M96-169c-40 0-48 33-48 73s9 75 48 75c24 0 41-14 43-38l32 2c-6 37-31 61-74 61-59 0-76-41-82-99-10-93 101-131 147-64 4 7 5 14 7 22l-32 3c-4-21-16-35-41-35" id="aj"/><g id="b"><use transform="matrix(0.0728395061728395,0,0,0.0728395061728395,0,0)" xlink:href="#af"/><use transform="matrix(0.0728395061728395,0,0,0.0728395061728395,17.48148148148148,0)" xlink:href="#ag"/><use transform="matrix(0.0728395061728395,0,0,0.0728395061728395,24.76543209876543,0)" xlink:href="#ah"/><use transform="matrix(0.0728395061728395,0,0,0.0728395061728395,39.333333333333336,0)" xlink:href="#ag"/><use transform="matrix(0.0728395061728395,0,0,0.0728395061728395,46.61728395061728,0)" xlink:href="#ai"/><use transform="matrix(0.0728395061728395,0,0,0.0728395061728395,52.3716049382716,0)" xlink:href="#aj"/></g><path d="M135-143c-3-34-86-38-87 0 15 53 115 12 119 90S17 21 10-45l28-5c4 36 97 45 98 0-10-56-113-15-118-90-4-57 82-63 122-42 12 7 21 19 24 35" id="ak"/><path d="M100-194c63 0 86 42 84 106H49c0 40 14 67 53 68 26 1 43-12 49-29l28 8c-11 28-37 45-77 45C44 4 14-33 15-96c1-61 26-98 85-98zm52 81c6-60-76-77-97-28-3 7-6 17-6 28h103" id="al"/><g id="c"><use transform="matrix(0.0728395061728395,0,0,0.0728395061728395,0,0)" xlink:href="#ah"/><use transform="matrix(0.0728395061728395,0,0,0.0728395061728395,14.5679012345679,0)" xlink:href="#ak"/><use transform="matrix(0.0728395061728395,0,0,0.0728395061728395,27.679012345679013,0)" xlink:href="#ak"/><use transform="matrix(0.0728395061728395,0,0,0.0728395061728395,40.790123456790134,0)" xlink:href="#al"/><use transform="matrix(0.0728395061728395,0,0,0.0728395061728395,55.358024691358025,0)" xlink:href="#ag"/><use transform="matrix(0.0728395061728395,0,0,0.0728395061728395,62.641975308641975,0)" xlink:href="#ak"/></g><path d="M85-194c31 0 48 13 60 33l-1-100h32l1 261h-30c-2-10 0-23-3-31C134-8 116 4 85 4 32 4 16-35 15-94c0-66 23-100 70-100zm9 24c-40 0-46 34-46 75 0 40 6 74 45 74 42 0 51-32 51-76 0-42-9-74-50-73" id="am"/><path d="M115-194c55 1 70 41 70 98S169 2 115 4C84 4 66-9 55-30l1 105H24l-1-265h31l2 30c10-21 28-34 59-34zm-8 174c40 0 45-34 45-75s-6-73-45-74c-42 0-51 32-51 76 0 43 10 73 51 73" id="an"/><path d="M24 0v-261h32V0H24" id="ao"/><path d="M100-194c62-1 85 37 85 99 1 63-27 99-86 99S16-35 15-95c0-66 28-99 85-99zM99-20c44 1 53-31 53-75 0-43-8-75-51-75s-53 32-53 75 10 74 51 75" id="ap"/><path d="M179-190L93 31C79 59 56 82 12 73V49c39 6 53-20 64-50L1-190h34L92-34l54-156h33" id="aq"/><g id="d"><use transform="matrix(0.0728395061728395,0,0,0.0728395061728395,0,0)" xlink:href="#am"/><use transform="matrix(0.0728395061728395,0,0,0.0728395061728395,14.5679012345679,0)" xlink:href="#al"/><use transform="matrix(0.0728395061728395,0,0,0.0728395061728395,29.1358024691358,0)" xlink:href="#an"/><use transform="matrix(0.0728395061728395,0,0,0.0728395061728395,43.7037037037037,0)" xlink:href="#ao"/><use transform="matrix(0.0728395061728395,0,0,0.0728395061728395,49.45802469135803,0)" xlink:href="#ap"/><use transform="matrix(0.0728395061728395,0,0,0.0728395061728395,64.02592592592592,0)" xlink:href="#aq"/><use transform="matrix(0.0728395061728395,0,0,0.0728395061728395,77.13703703703703,0)" xlink:href="#al"/><use transform="matrix(0.0728395061728395,0,0,0.0728395061728395,91.70493827160493,0)" xlink:href="#am"/></g><path d="M114-163C36-179 61-72 57 0H25l-1-190h30c1 12-1 29 2 39 6-27 23-49 58-41v29" id="ar"/><g id="e"><use transform="matrix(0.0728395061728395,0,0,0.0728395061728395,0,0)" xlink:href="#am"/><use transform="matrix(0.0728395061728395,0,0,0.0728395061728395,14.5679012345679,0)" xlink:href="#ai"/><use transform="matrix(0.0728395061728395,0,0,0.0728395061728395,20.322222222222223,0)" xlink:href="#ar"/><use transform="matrix(0.0728395061728395,0,0,0.0728395061728395,28.990123456790123,0)" xlink:href="#al"/><use transform="matrix(0.0728395061728395,0,0,0.0728395061728395,43.55802469135802,0)" xlink:href="#aj"/><use transform="matrix(0.0728395061728395,0,0,0.0728395061728395,56.66913580246913,0)" xlink:href="#ag"/><use transform="matrix(0.0728395061728395,0,0,0.0728395061728395,63.95308641975308,0)" xlink:href="#ao"/><use transform="matrix(0.0728395061728395,0,0,0.0728395061728395,69.7074074074074,0)" xlink:href="#aq"/></g><g id="f"><use transform="matrix(0.0728395061728395,0,0,0.0728395061728395,0,0)" xlink:href="#ag"/><use transform="matrix(0.0728395061728395,0,0,0.0728395061728395,7.28395061728395,0)" xlink:href="#ap"/></g><path d="M212-179c-10-28-35-45-73-45-59 0-87 40-87 99 0 60 29 101 89 101 43 0 62-24 78-52l27 14C228-24 195 4 139 4 59 4 22-46 18-125c-6-104 99-153 187-111 19 9 31 26 39 46" id="as"/><path d="M30-248c118-7 216 8 213 122C240-48 200 0 122 0H30v-248zM63-27c89 8 146-16 146-99s-60-101-146-95v194" id="at"/><path d="M190 0L58-211 59 0H30v-248h39L202-35l-2-213h31V0h-41" id="au"/><g id="g"><use transform="matrix(0.0728395061728395,0,0,0.0728395061728395,0,0)" xlink:href="#as"/><use transform="matrix(0.0728395061728395,0,0,0.0728395061728395,18.86543209876543,0)" xlink:href="#at"/><use transform="matrix(0.0728395061728395,0,0,0.0728395061728395,37.73086419753086,0)" xlink:href="#au"/></g><path d="M87 75C49 33 22-17 22-94c0-76 28-126 65-167h31c-38 41-64 92-64 168S80 34 118 75H87" id="av"/><path d="M84 4C-5 8 30-112 23-190h32v120c0 31 7 50 39 49 72-2 45-101 50-169h31l1 190h-30c-1-10 1-25-2-33-11 22-28 36-60 37" id="aw"/><path d="M101-234c-31-9-42 10-38 44h38v23H63V0H32v-167H5v-23h27c-7-52 17-82 69-68v24" id="ax"/><g id="h"><use transform="matrix(0.0728395061728395,0,0,0.0728395061728395,0,0)" xlink:href="#av"/><use transform="matrix(0.0728395061728395,0,0,0.0728395061728395,8.667901234567902,0)" xlink:href="#as"/><use transform="matrix(0.0728395061728395,0,0,0.0728395061728395,27.53333333333333,0)" xlink:href="#ao"/><use transform="matrix(0.0728395061728395,0,0,0.0728395061728395,33.287654320987656,0)" xlink:href="#ap"/><use transform="matrix(0.0728395061728395,0,0,0.0728395061728395,47.855555555555554,0)" xlink:href="#aw"/><use transform="matrix(0.0728395061728395,0,0,0.0728395061728395,62.42345679012345,0)" xlink:href="#am"/><use transform="matrix(0.0728395061728395,0,0,0.0728395061728395,76.99135802469135,0)" xlink:href="#ax"/><use transform="matrix(0.0728395061728395,0,0,0.0728395061728395,84.2753086419753,0)" xlink:href="#ao"/><use transform="matrix(0.0728395061728395,0,0,0.0728395061728395,90.02962962962962,0)" xlink:href="#ah"/><use transform="matrix(0.0728395061728395,0,0,0.0728395061728395,104.59753086419752,0)" xlink:href="#ar"/><use transform="matrix(0.0728395061728395,0,0,0.0728395061728395,113.26543209876543,0)" xlink:href="#al"/></g><path d="M266 0h-40l-56-210L115 0H75L2-248h35L96-30l15-64 43-154h32l59 218 59-218h35" id="ay"/><path d="M143 0L79-87 56-68V0H24v-261h32v163l83-92h37l-77 82L181 0h-38" id="az"/><path d="M33-261c38 41 65 92 65 168S71 34 33 75H2C39 34 66-17 66-93S39-220 2-261h31" id="aA"/><g id="i"><use transform="matrix(0.0728395061728395,0,0,0.0728395061728395,0,0)" xlink:href="#ay"/><use transform="matrix(0.0728395061728395,0,0,0.0728395061728395,24.182716049382716,0)" xlink:href="#ap"/><use transform="matrix(0.0728395061728395,0,0,0.0728395061728395,38.75061728395062,0)" xlink:href="#ar"/><use transform="matrix(0.0728395061728395,0,0,0.0728395061728395,47.41851851851852,0)" xlink:href="#az"/><use transform="matrix(0.0728395061728395,0,0,0.0728395061728395,60.52962962962963,0)" xlink:href="#al"/><use transform="matrix(0.0728395061728395,0,0,0.0728395061728395,75.09753086419752,0)" xlink:href="#ar"/><use transform="matrix(0.0728395061728395,0,0,0.0728395061728395,83.76543209876543,0)" xlink:href="#ak"/><use transform="matrix(0.0728395061728395,0,0,0.0728395061728395,96.87654320987654,0)" xlink:href="#aA"/></g><path fill="#333" d="M87 75C49 33 22-17 22-94c0-76 28-126 65-167h31c-38 41-64 92-64 168S80 34 118 75H87" id="aB"/><path fill="#333" d="M197 0v-115H63V0H30v-248h33v105h134v-105h34V0h-34" id="aC"/><path fill="#333" d="M100-194c63 0 86 42 84 106H49c0 40 14 67 53 68 26 1 43-12 49-29l28 8c-11 28-37 45-77 45C44 4 14-33 15-96c1-61 26-98 85-98zm52 81c6-60-76-77-97-28-3 7-6 17-6 28h103" id="aD"/><path fill="#333" d="M141-36C126-15 110 5 73 4 37 3 15-17 15-53c-1-64 63-63 125-63 3-35-9-54-41-54-24 1-41 7-42 31l-33-3c5-37 33-52 76-52 45 0 72 20 72 64v82c-1 20 7 32 28 27v20c-31 9-61-2-59-35zM48-53c0 20 12 33 32 33 41-3 63-29 60-74-43 2-92-5-92 41" id="aE"/><path fill="#333" d="M85-194c31 0 48 13 60 33l-1-100h32l1 261h-30c-2-10 0-23-3-31C134-8 116 4 85 4 32 4 16-35 15-94c0-66 23-100 70-100zm9 24c-40 0-46 34-46 75 0 40 6 74 45 74 42 0 51-32 51-76 0-42-9-74-50-73" id="aF"/><path fill="#333" d="M24 0v-261h32V0H24" id="aG"/><path fill="#333" d="M135-143c-3-34-86-38-87 0 15 53 115 12 119 90S17 21 10-45l28-5c4 36 97 45 98 0-10-56-113-15-118-90-4-57 82-63 122-42 12 7 21 19 24 35" id="aH"/><g id="j"><use transform="matrix(0.07469135802469135,0,0,0.07469135802469135,0,0)" xlink:href="#aB"/><use transform="matrix(0.07469135802469135,0,0,0.07469135802469135,8.88827160493827,0)" xlink:href="#aC"/><use transform="matrix(0.07469135802469135,0,0,0.07469135802469135,28.233333333333327,0)" xlink:href="#aD"/><use transform="matrix(0.07469135802469135,0,0,0.07469135802469135,43.1716049382716,0)" xlink:href="#aE"/><use transform="matrix(0.07469135802469135,0,0,0.07469135802469135,58.109876543209865,0)" xlink:href="#aF"/><use transform="matrix(0.07469135802469135,0,0,0.07469135802469135,73.04814814814813,0)" xlink:href="#aG"/><use transform="matrix(0.07469135802469135,0,0,0.07469135802469135,78.94876543209875,0)" xlink:href="#aD"/><use transform="matrix(0.07469135802469135,0,0,0.07469135802469135,93.88703703703702,0)" xlink:href="#aH"/><use transform="matrix(0.07469135802469135,0,0,0.07469135802469135,107.33148148148146,0)" xlink:href="#aH"/></g><path fill="#333" d="M212-179c-10-28-35-45-73-45-59 0-87 40-87 99 0 60 29 101 89 101 43 0 62-24 78-52l27 14C228-24 195 4 139 4 59 4 22-46 18-125c-6-104 99-153 187-111 19 9 31 26 39 46" id="aI"/><path fill="#333" d="M240 0l2-218c-23 76-54 145-80 218h-23L58-218 59 0H30v-248h44l77 211c21-75 51-140 76-211h43V0h-30" id="aJ"/><path fill="#333" d="M185-189c-5-48-123-54-124 2 14 75 158 14 163 119 3 78-121 87-175 55-17-10-28-26-33-46l33-7c5 56 141 63 141-1 0-78-155-14-162-118-5-82 145-84 179-34 5 7 8 16 11 25" id="aK"/><path fill="#333" d="M33-261c38 41 65 92 65 168S71 34 33 75H2C39 34 66-17 66-93S39-220 2-261h31" id="aL"/><g id="k"><use transform="matrix(0.07469135802469135,0,0,0.07469135802469135,0,0)" xlink:href="#aI"/><use transform="matrix(0.07469135802469135,0,0,0.07469135802469135,19.34506172839506,0)" xlink:href="#aJ"/><use transform="matrix(0.07469135802469135,0,0,0.07469135802469135,41.67777777777777,0)" xlink:href="#aK"/><use transform="matrix(0.07469135802469135,0,0,0.07469135802469135,59.603703703703694,0)" xlink:href="#aL"/></g><path d="M27 0v-27h64v-190l-56 39v-29l58-41h29v221h61V0H27" id="aM"/><g id="l"><use transform="matrix(0.0728395061728395,0,0,0.0728395061728395,0,0)" xlink:href="#aM"/><use transform="matrix(0.0728395061728395,0,0,0.0728395061728395,14.5679012345679,0)" xlink:href="#ae"/></g><path fill="#333" d="M114-163C36-179 61-72 57 0H25l-1-190h30c1 12-1 29 2 39 6-27 23-49 58-41v29" id="aN"/><path fill="#333" d="M177-190C167-65 218 103 67 71c-23-6-38-20-44-43l32-5c15 47 100 32 89-28v-30C133-14 115 1 83 1 29 1 15-40 15-95c0-56 16-97 71-98 29-1 48 16 59 35 1-10 0-23 2-32h30zM94-22c36 0 50-32 50-73 0-42-14-75-50-75-39 0-46 34-46 75s6 73 46 73" id="aO"/><g id="m"><use transform="matrix(0.07469135802469135,0,0,0.07469135802469135,0,0)" xlink:href="#aJ"/><use transform="matrix(0.07469135802469135,0,0,0.07469135802469135,22.33271604938271,0)" xlink:href="#aD"/><use transform="matrix(0.07469135802469135,0,0,0.07469135802469135,37.270987654320976,0)" xlink:href="#aN"/><use transform="matrix(0.07469135802469135,0,0,0.07469135802469135,46.159259259259244,0)" xlink:href="#aO"/><use transform="matrix(0.07469135802469135,0,0,0.07469135802469135,61.09753086419751,0)" xlink:href="#aD"/></g><path fill="#333" d="M59-47c-2 24 18 29 38 22v24C64 9 27 4 27-40v-127H5v-23h24l9-43h21v43h35v23H59v120" id="aP"/><path fill="#333" d="M100-194c62-1 85 37 85 99 1 63-27 99-86 99S16-35 15-95c0-66 28-99 85-99zM99-20c44 1 53-31 53-75 0-43-8-75-51-75s-53 32-53 75 10 74 51 75" id="aQ"/><g id="n"><use transform="matrix(0.07469135802469135,0,0,0.07469135802469135,0,0)" xlink:href="#aP"/><use transform="matrix(0.07469135802469135,0,0,0.07469135802469135,7.469135802469134,0)" xlink:href="#aQ"/></g><path fill="#333" d="M210-169c-67 3-38 105-44 169h-31v-121c0-29-5-50-35-48C34-165 62-65 56 0H25l-1-190h30c1 10-1 24 2 32 10-44 99-50 107 0 11-21 27-35 58-36 85-2 47 119 55 194h-31v-121c0-29-5-49-35-48" id="aR"/><g id="o"><use transform="matrix(0.07469135802469135,0,0,0.07469135802469135,0,0)" xlink:href="#aR"/><use transform="matrix(0.07469135802469135,0,0,0.07469135802469135,22.33271604938271,0)" xlink:href="#aE"/><use transform="matrix(0.07469135802469135,0,0,0.07469135802469135,37.270987654320976,0)" xlink:href="#aH"/><use transform="matrix(0.07469135802469135,0,0,0.07469135802469135,50.71543209876541,0)" xlink:href="#aP"/><use transform="matrix(0.07469135802469135,0,0,0.07469135802469135,58.18456790123455,0)" xlink:href="#aD"/><use transform="matrix(0.07469135802469135,0,0,0.07469135802469135,73.12283950617282,0)" xlink:href="#aN"/></g><path fill="#333" d="M206 0h-36l-40-164L89 0H53L-1-190h32L70-26l43-164h34l41 164 42-164h31" id="aS"/><path fill="#333" d="M115-194c53 0 69 39 70 98 0 66-23 100-70 100C84 3 66-7 56-30L54 0H23l1-261h32v101c10-23 28-34 59-34zm-8 174c40 0 45-34 45-75 0-40-5-75-45-74-42 0-51 32-51 76 0 43 10 73 51 73" id="aT"/><path fill="#333" d="M106-169C34-169 62-67 57 0H25v-261h32l-1 103c12-21 28-36 61-36 89 0 53 116 60 194h-32v-121c2-32-8-49-39-48" id="aU"/><path fill="#333" d="M143 0L79-87 56-68V0H24v-261h32v163l83-92h37l-77 82L181 0h-38" id="aV"/><g id="p"><use transform="matrix(0.07469135802469135,0,0,0.07469135802469135,0,0)" xlink:href="#aS"/><use transform="matrix(0.07469135802469135,0,0,0.07469135802469135,19.34506172839506,0)" xlink:href="#aD"/><use transform="matrix(0.07469135802469135,0,0,0.07469135802469135,34.28333333333333,0)" xlink:href="#aT"/><use transform="matrix(0.07469135802469135,0,0,0.07469135802469135,49.2216049382716,0)" xlink:href="#aU"/><use transform="matrix(0.07469135802469135,0,0,0.07469135802469135,64.15987654320986,0)" xlink:href="#aQ"/><use transform="matrix(0.07469135802469135,0,0,0.07469135802469135,79.09814814814814,0)" xlink:href="#aQ"/><use transform="matrix(0.07469135802469135,0,0,0.07469135802469135,94.03641975308639,0)" xlink:href="#aV"/></g><path fill="#333" d="M24-231v-30h32v30H24zM24 0v-190h32V0H24" id="aW"/><g id="q"><use transform="matrix(0.07469135802469135,0,0,0.07469135802469135,0,0)" xlink:href="#aP"/><use transform="matrix(0.07469135802469135,0,0,0.07469135802469135,7.469135802469134,0)" xlink:href="#aN"/><use transform="matrix(0.07469135802469135,0,0,0.07469135802469135,16.357407407407404,0)" xlink:href="#aW"/><use transform="matrix(0.07469135802469135,0,0,0.07469135802469135,22.25802469135802,0)" xlink:href="#aO"/><use transform="matrix(0.07469135802469135,0,0,0.07469135802469135,37.19629629629629,0)" xlink:href="#aO"/><use transform="matrix(0.07469135802469135,0,0,0.07469135802469135,52.13456790123456,0)" xlink:href="#aD"/><use transform="matrix(0.07469135802469135,0,0,0.07469135802469135,67.07283950617283,0)" xlink:href="#aN"/><use transform="matrix(0.07469135802469135,0,0,0.07469135802469135,75.9611111111111,0)" xlink:href="#aH"/></g><path fill="#333" d="M115-194c55 1 70 41 70 98S169 2 115 4C84 4 66-9 55-30l1 105H24l-1-265h31l2 30c10-21 28-34 59-34zm-8 174c40 0 45-34 45-75s-6-73-45-74c-42 0-51 32-51 76 0 43 10 73 51 73" id="aX"/><g id="r"><use transform="matrix(0.07469135802469135,0,0,0.07469135802469135,0,0)" xlink:href="#aX"/><use transform="matrix(0.07469135802469135,0,0,0.07469135802469135,14.938271604938269,0)" xlink:href="#aN"/><use transform="matrix(0.07469135802469135,0,0,0.07469135802469135,23.82654320987654,0)" xlink:href="#aQ"/><use transform="matrix(0.07469135802469135,0,0,0.07469135802469135,38.764814814814805,0)" xlink:href="#aF"/></g><path fill="#333" d="M84 4C-5 8 30-112 23-190h32v120c0 31 7 50 39 49 72-2 45-101 50-169h31l1 190h-30c-1-10 1-25-2-33-11 22-28 36-60 37" id="aY"/><g id="s"><use transform="matrix(0.07469135802469135,0,0,0.07469135802469135,0,0)" xlink:href="#aT"/><use transform="matrix(0.07469135802469135,0,0,0.07469135802469135,14.938271604938269,0)" xlink:href="#aY"/><use transform="matrix(0.07469135802469135,0,0,0.07469135802469135,29.876543209876537,0)" xlink:href="#aW"/><use transform="matrix(0.07469135802469135,0,0,0.07469135802469135,35.777160493827154,0)" xlink:href="#aG"/><use transform="matrix(0.07469135802469135,0,0,0.07469135802469135,41.67777777777777,0)" xlink:href="#aF"/></g><path d="M126-127c33 6 58 20 58 59 0 88-139 92-164 29-3-8-5-16-6-25l32-3c6 27 21 44 54 44 32 0 52-15 52-46 0-38-36-46-79-43v-28c39 1 72-4 72-42 0-27-17-43-46-43-28 0-47 15-49 41l-32-3c6-42 35-63 81-64 48-1 79 21 79 65 0 36-21 52-52 59" id="aZ"/><g id="t"><use transform="matrix(0.07283950617283949,0,0,0.07283950617283949,0,0)" xlink:href="#aZ"/><use transform="matrix(0.07283950617283949,0,0,0.07283950617283949,14.567901234567898,0)" xlink:href="#ae"/></g><path d="M205 0l-28-72H64L36 0H1l101-248h38L239 0h-34zm-38-99l-47-123c-12 45-31 82-46 123h93" id="ba"/><path d="M106-169C34-169 62-67 57 0H25v-261h32l-1 103c12-21 28-36 61-36 89 0 53 116 60 194h-32v-121c2-32-8-49-39-48" id="bb"/><path d="M108 0H70L1-190h34L89-25l56-165h34" id="bc"/><g id="u"><use transform="matrix(0.07283950617283949,0,0,0.07283950617283949,0,0)" xlink:href="#ba"/><use transform="matrix(0.07283950617283949,0,0,0.07283950617283949,17.481481481481477,0)" xlink:href="#ar"/><use transform="matrix(0.07283950617283949,0,0,0.07283950617283949,26.149382716049377,0)" xlink:href="#aj"/><use transform="matrix(0.07283950617283949,0,0,0.07283950617283949,39.26049382716049,0)" xlink:href="#bb"/><use transform="matrix(0.07283950617283949,0,0,0.07283950617283949,53.828395061728386,0)" xlink:href="#ai"/><use transform="matrix(0.07283950617283949,0,0,0.07283950617283949,59.582716049382704,0)" xlink:href="#bc"/><use transform="matrix(0.07283950617283949,0,0,0.07283950617283949,72.69382716049381,0)" xlink:href="#al"/></g><path d="M115-194c53 0 69 39 70 98 0 66-23 100-70 100C84 3 66-7 56-30L54 0H23l1-261h32v101c10-23 28-34 59-34zm-8 174c40 0 45-34 45-75 0-40-5-75-45-74-42 0-51 32-51 76 0 43 10 73 51 73" id="bd"/><g id="v"><use transform="matrix(0.07283950617283949,0,0,0.07283950617283949,0,0)" xlink:href="#bd"/><use transform="matrix(0.07283950617283949,0,0,0.07283950617283949,14.567901234567898,0)" xlink:href="#aw"/><use transform="matrix(0.07283950617283949,0,0,0.07283950617283949,29.135802469135797,0)" xlink:href="#ai"/><use transform="matrix(0.07283950617283949,0,0,0.07283950617283949,34.890123456790114,0)" xlink:href="#ao"/><use transform="matrix(0.07283950617283949,0,0,0.07283950617283949,40.644444444444424,0)" xlink:href="#am"/></g><g id="w"><use transform="matrix(0.07283950617283949,0,0,0.07283950617283949,0,0)" xlink:href="#ap"/><use transform="matrix(0.07283950617283949,0,0,0.07283950617283949,14.567901234567898,0)" xlink:href="#aw"/><use transform="matrix(0.07283950617283949,0,0,0.07283950617283949,29.135802469135797,0)" xlink:href="#ag"/><use transform="matrix(0.07283950617283949,0,0,0.07283950617283949,36.419753086419746,0)" xlink:href="#an"/><use transform="matrix(0.07283950617283949,0,0,0.07283950617283949,50.987654320987644,0)" xlink:href="#aw"/><use transform="matrix(0.07283950617283949,0,0,0.07283950617283949,65.55555555555554,0)" xlink:href="#ag"/></g><g id="x"><use transform="matrix(0.07283950617283949,0,0,0.07283950617283949,0,0)" xlink:href="#ax"/><use transform="matrix(0.07283950617283949,0,0,0.07283950617283949,7.283950617283949,0)" xlink:href="#ap"/><use transform="matrix(0.07283950617283949,0,0,0.07283950617283949,21.851851851851848,0)" xlink:href="#ar"/></g><path d="M210-169c-67 3-38 105-44 169h-31v-121c0-29-5-50-35-48C34-165 62-65 56 0H25l-1-190h30c1 10-1 24 2 32 10-44 99-50 107 0 11-21 27-35 58-36 85-2 47 119 55 194h-31v-121c0-29-5-49-35-48" id="be"/><path d="M117-194c89-4 53 116 60 194h-32v-121c0-31-8-49-39-48C34-167 62-67 57 0H25l-1-190h30c1 10-1 24 2 32 11-22 29-35 61-36" id="bf"/><g id="y"><use transform="matrix(0.07283950617283949,0,0,0.07283950617283949,0,0)" xlink:href="#aj"/><use transform="matrix(0.07283950617283949,0,0,0.07283950617283949,13.111111111111109,0)" xlink:href="#ap"/><use transform="matrix(0.07283950617283949,0,0,0.07283950617283949,27.679012345679006,0)" xlink:href="#be"/><use transform="matrix(0.07283950617283949,0,0,0.07283950617283949,49.45802469135801,0)" xlink:href="#an"/><use transform="matrix(0.07283950617283949,0,0,0.07283950617283949,64.02592592592592,0)" xlink:href="#ao"/><use transform="matrix(0.07283950617283949,0,0,0.07283950617283949,69.78024691358024,0)" xlink:href="#ai"/><use transform="matrix(0.07283950617283949,0,0,0.07283950617283949,75.53456790123457,0)" xlink:href="#ah"/><use transform="matrix(0.07283950617283949,0,0,0.07283950617283949,90.10246913580247,0)" xlink:href="#bf"/><use transform="matrix(0.07283950617283949,0,0,0.07283950617283949,104.67037037037036,0)" xlink:href="#aj"/><use transform="matrix(0.07283950617283949,0,0,0.07283950617283949,117.78148148148148,0)" xlink:href="#al"/></g><g id="z"><use transform="matrix(0.07283950617283949,0,0,0.07283950617283949,0,0)" xlink:href="#an"/><use transform="matrix(0.07283950617283949,0,0,0.07283950617283949,14.567901234567898,0)" xlink:href="#aw"/><use transform="matrix(0.07283950617283949,0,0,0.07283950617283949,29.135802469135797,0)" xlink:href="#ar"/><use transform="matrix(0.07283950617283949,0,0,0.07283950617283949,37.8037037037037,0)" xlink:href="#an"/><use transform="matrix(0.07283950617283949,0,0,0.07283950617283949,52.371604938271595,0)" xlink:href="#ap"/><use transform="matrix(0.07283950617283949,0,0,0.07283950617283949,66.93950617283949,0)" xlink:href="#ak"/><use transform="matrix(0.07283950617283949,0,0,0.07283950617283949,80.0506172839506,0)" xlink:href="#al"/><use transform="matrix(0.07283950617283949,0,0,0.07283950617283949,94.6185185185185,0)" xlink:href="#ak"/></g><g id="A"><use transform="matrix(0.07283950617283949,0,0,0.07283950617283949,0,0)" xlink:href="#av"/><use transform="matrix(0.07283950617283949,0,0,0.07283950617283949,8.6679012345679,0)" xlink:href="#ai"/><use transform="matrix(0.07283950617283949,0,0,0.07283950617283949,14.42222222222222,0)" xlink:href="#ax"/></g><path d="M145-31C134-9 116 4 85 4 32 4 16-35 15-94c0-59 17-99 70-100 32-1 48 14 60 33 0-11-1-24 2-32h30l-1 268h-32zM93-21c41 0 51-33 51-76s-8-73-50-73c-40 0-46 35-46 75s5 74 45 74" id="bg"/><g id="B"><use transform="matrix(0.07283950617283949,0,0,0.07283950617283949,0,0)" xlink:href="#ar"/><use transform="matrix(0.07283950617283949,0,0,0.07283950617283949,8.6679012345679,0)" xlink:href="#al"/><use transform="matrix(0.07283950617283949,0,0,0.07283950617283949,23.2358024691358,0)" xlink:href="#bg"/><use transform="matrix(0.07283950617283949,0,0,0.07283950617283949,37.8037037037037,0)" xlink:href="#aw"/><use transform="matrix(0.07283950617283949,0,0,0.07283950617283949,52.371604938271595,0)" xlink:href="#ai"/><use transform="matrix(0.07283950617283949,0,0,0.07283950617283949,58.12592592592591,0)" xlink:href="#ar"/><use transform="matrix(0.07283950617283949,0,0,0.07283950617283949,66.7938271604938,0)" xlink:href="#al"/><use transform="matrix(0.07283950617283949,0,0,0.07283950617283949,81.36172839506172,0)" xlink:href="#am"/><use transform="matrix(0.07283950617283949,0,0,0.07283950617283949,95.92962962962962,0)" xlink:href="#aA"/></g><path fill="#333" d="M30-248c118-7 216 8 213 122C240-48 200 0 122 0H30v-248zM63-27c89 8 146-16 146-99s-60-101-146-95v194" id="bh"/><path fill="#333" d="M190 0L58-211 59 0H30v-248h39L202-35l-2-213h31V0h-41" id="bi"/><g id="C"><use transform="matrix(0.07469135802469135,0,0,0.07469135802469135,0,0)" xlink:href="#aB"/><use transform="matrix(0.07469135802469135,0,0,0.07469135802469135,8.88827160493827,0)" xlink:href="#aI"/><use transform="matrix(0.07469135802469135,0,0,0.07469135802469135,28.233333333333327,0)" xlink:href="#bh"/><use transform="matrix(0.07469135802469135,0,0,0.07469135802469135,47.578395061728386,0)" xlink:href="#bi"/><use transform="matrix(0.07469135802469135,0,0,0.07469135802469135,66.92345679012345,0)" xlink:href="#aL"/></g><path fill="#666" d="M199 0l-22-63H83L61 0H9l90-248h61L250 0h-51zm-33-102l-36-108c-10 38-24 72-36 108h72" id="bj"/><path fill="#666" d="M275 0h-61l-44-196L126 0H64L0-248h53L97-49l45-199h58l43 199 44-199h52" id="bk"/><path fill="#666" d="M169-182c-1-43-94-46-97-3 18 66 151 10 154 114 3 95-165 93-204 36-6-8-10-19-12-30l50-8c3 46 112 56 116 5-17-69-150-10-154-114-4-87 153-88 188-35 5 8 8 18 10 28" id="bl"/><g id="D"><use transform="matrix(0.04938271604938272,0,0,0.04938271604938272,0,0)" xlink:href="#bj"/><use transform="matrix(0.04938271604938272,0,0,0.04938271604938272,11.80246913580247,0)" xlink:href="#bk"/><use transform="matrix(0.04938271604938272,0,0,0.04938271604938272,28.543209876543205,0)" xlink:href="#bl"/></g><path fill="#666" d="M67-125c0 53 21 87 73 88 37 1 54-22 65-47l45 17C233-25 199 4 140 4 58 4 20-42 15-125 8-235 124-281 211-232c18 10 29 29 36 50l-46 12c-8-25-30-41-62-41-52 0-71 34-72 86" id="bm"/><path fill="#666" d="M25 0v-261h50V0H25" id="bn"/><path fill="#666" d="M110-194c64 0 96 36 96 99 0 64-35 99-97 99-61 0-95-36-95-99 0-62 34-99 96-99zm-1 164c35 0 45-28 45-65 0-40-10-65-43-65-34 0-45 26-45 65 0 36 10 65 43 65" id="bo"/><path fill="#666" d="M85 4C-2 5 27-109 22-190h50c7 57-23 150 33 157 60-5 35-97 40-157h50l1 190h-47c-2-12 1-28-3-38-12 25-28 42-61 42" id="bp"/><path fill="#666" d="M88-194c31-1 46 15 58 34l-1-101h50l1 261h-48c-2-10 0-23-3-31C134-8 116 4 84 4 32 4 16-41 15-95c0-56 19-97 73-99zm17 164c33 0 40-30 41-66 1-37-9-64-41-64s-38 30-39 65c0 43 13 65 39 65" id="bq"/><g id="E"><use transform="matrix(0.04938271604938272,0,0,0.04938271604938272,0,0)" xlink:href="#bm"/><use transform="matrix(0.04938271604938272,0,0,0.04938271604938272,12.790123456790125,0)" xlink:href="#bn"/><use transform="matrix(0.04938271604938272,0,0,0.04938271604938272,17.7283950617284,0)" xlink:href="#bo"/><use transform="matrix(0.04938271604938272,0,0,0.04938271604938272,28.54320987654322,0)" xlink:href="#bp"/><use transform="matrix(0.04938271604938272,0,0,0.04938271604938272,39.35802469135803,0)" xlink:href="#bq"/></g><path fill="#333" d="M153-248C145-148 188 4 80 4 36 3 13-21 6-62l32-5c4 25 16 42 43 43 27 0 39-20 39-49v-147H72v-28h81" id="br"/><path fill="#333" d="M117-194c89-4 53 116 60 194h-32v-121c0-31-8-49-39-48C34-167 62-67 57 0H25l-1-190h30c1 10-1 24 2 32 11-22 29-35 61-36" id="bs"/><g id="F"><use transform="matrix(0.06851851851851848,0,0,0.06851851851851848,0,0)" xlink:href="#br"/><use transform="matrix(0.06851851851851848,0,0,0.06851851851851848,12.333333333333327,0)" xlink:href="#aD"/><use transform="matrix(0.06851851851851848,0,0,0.06851851851851848,26.037037037037027,0)" xlink:href="#bs"/><use transform="matrix(0.06851851851851848,0,0,0.06851851851851848,39.74074074074072,0)" xlink:href="#aV"/><use transform="matrix(0.06851851851851848,0,0,0.06851851851851848,52.074074074074055,0)" xlink:href="#aW"/><use transform="matrix(0.06851851851851848,0,0,0.06851851851851848,57.487037037037005,0)" xlink:href="#bs"/><use transform="matrix(0.06851851851851848,0,0,0.06851851851851848,71.1907407407407,0)" xlink:href="#aH"/></g><path fill="#333" d="M33 0v-248h34V0H33" id="bt"/><path fill="#333" d="M96-169c-40 0-48 33-48 73s9 75 48 75c24 0 41-14 43-38l32 2c-6 37-31 61-74 61-59 0-76-41-82-99-10-93 101-131 147-64 4 7 5 14 7 22l-32 3c-4-21-16-35-41-35" id="bu"/><g id="G"><use transform="matrix(0.06851851851851848,0,0,0.06851851851851848,0,0)" xlink:href="#bt"/><use transform="matrix(0.06851851851851848,0,0,0.06851851851851848,6.851851851851848,0)" xlink:href="#bs"/><use transform="matrix(0.06851851851851848,0,0,0.06851851851851848,20.555555555555543,0)" xlink:href="#aH"/><use transform="matrix(0.06851851851851848,0,0,0.06851851851851848,32.88888888888887,0)" xlink:href="#aP"/><use transform="matrix(0.06851851851851848,0,0,0.06851851851851848,39.74074074074072,0)" xlink:href="#aE"/><use transform="matrix(0.06851851851851848,0,0,0.06851851851851848,53.444444444444414,0)" xlink:href="#bs"/><use transform="matrix(0.06851851851851848,0,0,0.06851851851851848,67.14814814814811,0)" xlink:href="#bu"/><use transform="matrix(0.06851851851851848,0,0,0.06851851851851848,79.48148148148144,0)" xlink:href="#aD"/></g><path fill="#333" d="M0 4l72-265h28L28 4H0" id="bv"/><use transform="matrix(0.06851851851851848,0,0,0.06851851851851848,0,0)" xlink:href="#bv" id="H"/><path fill="#333" d="M160-131c35 5 61 23 61 61C221 17 115-2 30 0v-248c76 3 177-17 177 60 0 33-19 50-47 57zm-97-11c50-1 110 9 110-42 0-47-63-36-110-37v79zm0 115c55-2 124 14 124-45 0-56-70-42-124-44v89" id="bw"/><g id="I"><use transform="matrix(0.06851851851851848,0,0,0.06851851851851848,0,0)" xlink:href="#bw"/><use transform="matrix(0.06851851851851848,0,0,0.06851851851851848,16.444444444444436,0)" xlink:href="#aY"/><use transform="matrix(0.06851851851851848,0,0,0.06851851851851848,30.14814814814813,0)" xlink:href="#aW"/><use transform="matrix(0.06851851851851848,0,0,0.06851851851851848,35.56111111111109,0)" xlink:href="#aG"/><use transform="matrix(0.06851851851851848,0,0,0.06851851851851848,40.97407407407405,0)" xlink:href="#aF"/></g><path fill="#333" d="M108 0H70L1-190h34L89-25l56-165h34" id="bx"/><g id="J"><use transform="matrix(0.06851851851851848,0,0,0.06851851851851848,0,0)" xlink:href="#aK"/><use transform="matrix(0.06851851851851848,0,0,0.06851851851851848,16.444444444444436,0)" xlink:href="#aD"/><use transform="matrix(0.06851851851851848,0,0,0.06851851851851848,30.14814814814813,0)" xlink:href="#aN"/><use transform="matrix(0.06851851851851848,0,0,0.06851851851851848,38.30185185185183,0)" xlink:href="#bx"/><use transform="matrix(0.06851851851851848,0,0,0.06851851851851848,50.63518518518516,0)" xlink:href="#aD"/><use transform="matrix(0.06851851851851848,0,0,0.06851851851851848,64.33888888888885,0)" xlink:href="#aN"/></g><path fill="#248814" d="M137 0h-34L2-248h35l83 218 83-218h36" id="by"/><path fill="#248814" d="M24-231v-30h32v30H24zM24 0v-190h32V0H24" id="bz"/><path fill="#248814" d="M114-163C36-179 61-72 57 0H25l-1-190h30c1 12-1 29 2 39 6-27 23-49 58-41v29" id="bA"/><path fill="#248814" d="M59-47c-2 24 18 29 38 22v24C64 9 27 4 27-40v-127H5v-23h24l9-43h21v43h35v23H59v120" id="bB"/><path fill="#248814" d="M84 4C-5 8 30-112 23-190h32v120c0 31 7 50 39 49 72-2 45-101 50-169h31l1 190h-30c-1-10 1-25-2-33-11 22-28 36-60 37" id="bC"/><path fill="#248814" d="M141-36C126-15 110 5 73 4 37 3 15-17 15-53c-1-64 63-63 125-63 3-35-9-54-41-54-24 1-41 7-42 31l-33-3c5-37 33-52 76-52 45 0 72 20 72 64v82c-1 20 7 32 28 27v20c-31 9-61-2-59-35zM48-53c0 20 12 33 32 33 41-3 63-29 60-74-43 2-92-5-92 41" id="bD"/><path fill="#248814" d="M24 0v-261h32V0H24" id="bE"/><g id="K"><use transform="matrix(0.05,0,0,0.05,0,0)" xlink:href="#by"/><use transform="matrix(0.05,0,0,0.05,11.65,0)" xlink:href="#bz"/><use transform="matrix(0.05,0,0,0.05,15.600000000000001,0)" xlink:href="#bA"/><use transform="matrix(0.05,0,0,0.05,21.55,0)" xlink:href="#bB"/><use transform="matrix(0.05,0,0,0.05,26.55,0)" xlink:href="#bC"/><use transform="matrix(0.05,0,0,0.05,36.55,0)" xlink:href="#bD"/><use transform="matrix(0.05,0,0,0.05,46.55,0)" xlink:href="#bE"/></g><path fill="#248814" d="M30-248c87 1 191-15 191 75 0 78-77 80-158 76V0H30v-248zm33 125c57 0 124 11 124-50 0-59-68-47-124-48v98" id="bF"/><path fill="#248814" d="M108 0H70L1-190h34L89-25l56-165h34" id="bG"/><path fill="#248814" d="M100-194c63 0 86 42 84 106H49c0 40 14 67 53 68 26 1 43-12 49-29l28 8c-11 28-37 45-77 45C44 4 14-33 15-96c1-61 26-98 85-98zm52 81c6-60-76-77-97-28-3 7-6 17-6 28h103" id="bH"/><g id="L"><use transform="matrix(0.05,0,0,0.05,0,0)" xlink:href="#bF"/><use transform="matrix(0.05,0,0,0.05,12,0)" xlink:href="#bA"/><use transform="matrix(0.05,0,0,0.05,17.95,0)" xlink:href="#bz"/><use transform="matrix(0.05,0,0,0.05,21.9,0)" xlink:href="#bG"/><use transform="matrix(0.05,0,0,0.05,30.899999999999995,0)" xlink:href="#bD"/><use transform="matrix(0.05,0,0,0.05,40.9,0)" xlink:href="#bB"/><use transform="matrix(0.05,0,0,0.05,45.9,0)" xlink:href="#bH"/></g><path fill="#248814" d="M212-179c-10-28-35-45-73-45-59 0-87 40-87 99 0 60 29 101 89 101 43 0 62-24 78-52l27 14C228-24 195 4 139 4 59 4 22-46 18-125c-6-104 99-153 187-111 19 9 31 26 39 46" id="bI"/><path fill="#248814" d="M100-194c62-1 85 37 85 99 1 63-27 99-86 99S16-35 15-95c0-66 28-99 85-99zM99-20c44 1 53-31 53-75 0-43-8-75-51-75s-53 32-53 75 10 74 51 75" id="bJ"/><path fill="#248814" d="M85-194c31 0 48 13 60 33l-1-100h32l1 261h-30c-2-10 0-23-3-31C134-8 116 4 85 4 32 4 16-35 15-94c0-66 23-100 70-100zm9 24c-40 0-46 34-46 75 0 40 6 74 45 74 42 0 51-32 51-76 0-42-9-74-50-73" id="bK"/><g id="M"><use transform="matrix(0.05,0,0,0.05,0,0)" xlink:href="#bI"/><use transform="matrix(0.05,0,0,0.05,12.950000000000001,0)" xlink:href="#bE"/><use transform="matrix(0.05,0,0,0.05,16.900000000000002,0)" xlink:href="#bJ"/><use transform="matrix(0.05,0,0,0.05,26.900000000000002,0)" xlink:href="#bC"/><use transform="matrix(0.05,0,0,0.05,36.900000000000006,0)" xlink:href="#bK"/></g><path d="M101-251c82-7 93 87 43 132L82-64C71-53 59-42 53-27h129V0H18c2-99 128-94 128-182 0-28-16-43-45-43s-46 15-49 41l-32-3c6-41 34-60 81-64" id="bL"/><g id="N"><use transform="matrix(0.0728395061728395,0,0,0.0728395061728395,0,0)" xlink:href="#bL"/><use transform="matrix(0.0728395061728395,0,0,0.0728395061728395,14.5679012345679,0)" xlink:href="#ae"/></g><path d="M160-131c35 5 61 23 61 61C221 17 115-2 30 0v-248c76 3 177-17 177 60 0 33-19 50-47 57zm-97-11c50-1 110 9 110-42 0-47-63-36-110-37v79zm0 115c55-2 124 14 124-45 0-56-70-42-124-44v89" id="bM"/><g id="O"><use transform="matrix(0.0728395061728395,0,0,0.0728395061728395,0,0)" xlink:href="#bM"/><use transform="matrix(0.0728395061728395,0,0,0.0728395061728395,17.48148148148148,0)" xlink:href="#aw"/><use transform="matrix(0.0728395061728395,0,0,0.0728395061728395,32.04938271604938,0)" xlink:href="#ai"/><use transform="matrix(0.0728395061728395,0,0,0.0728395061728395,37.803703703703704,0)" xlink:href="#ao"/><use transform="matrix(0.0728395061728395,0,0,0.0728395061728395,43.558024691358035,0)" xlink:href="#am"/></g><g id="P"><use transform="matrix(0.0728395061728395,0,0,0.0728395061728395,0,0)" xlink:href="#an"/><use transform="matrix(0.0728395061728395,0,0,0.0728395061728395,14.5679012345679,0)" xlink:href="#ar"/><use transform="matrix(0.0728395061728395,0,0,0.0728395061728395,23.235802469135802,0)" xlink:href="#ap"/><use transform="matrix(0.0728395061728395,0,0,0.0728395061728395,37.803703703703704,0)" xlink:href="#aj"/><use transform="matrix(0.0728395061728395,0,0,0.0728395061728395,50.914814814814825,0)" xlink:href="#al"/><use transform="matrix(0.0728395061728395,0,0,0.0728395061728395,65.48271604938272,0)" xlink:href="#ak"/><use transform="matrix(0.0728395061728395,0,0,0.0728395061728395,78.59382716049383,0)" xlink:href="#ak"/></g><g id="Q"><use transform="matrix(0.0728395061728395,0,0,0.0728395061728395,0,0)" xlink:href="#an"/><use transform="matrix(0.0728395061728395,0,0,0.0728395061728395,14.5679012345679,0)" xlink:href="#ar"/><use transform="matrix(0.0728395061728395,0,0,0.0728395061728395,23.235802469135802,0)" xlink:href="#ap"/><use transform="matrix(0.0728395061728395,0,0,0.0728395061728395,37.803703703703704,0)" xlink:href="#am"/><use transform="matrix(0.0728395061728395,0,0,0.0728395061728395,52.3716049382716,0)" xlink:href="#aw"/><use transform="matrix(0.0728395061728395,0,0,0.0728395061728395,66.9395061728395,0)" xlink:href="#aj"/><use transform="matrix(0.0728395061728395,0,0,0.0728395061728395,80.05061728395061,0)" xlink:href="#al"/><use transform="matrix(0.0728395061728395,0,0,0.0728395061728395,94.61851851851851,0)" xlink:href="#ak"/></g><g id="R"><use transform="matrix(0.0728395061728395,0,0,0.0728395061728395,0,0)" xlink:href="#ak"/><use transform="matrix(0.0728395061728395,0,0,0.0728395061728395,13.11111111111111,0)" xlink:href="#ag"/><use transform="matrix(0.0728395061728395,0,0,0.0728395061728395,20.39506172839506,0)" xlink:href="#ah"/><use transform="matrix(0.0728395061728395,0,0,0.0728395061728395,34.96296296296296,0)" xlink:href="#ag"/><use transform="matrix(0.0728395061728395,0,0,0.0728395061728395,42.24691358024691,0)" xlink:href="#ai"/><use transform="matrix(0.0728395061728395,0,0,0.0728395061728395,48.001234567901236,0)" xlink:href="#aj"/></g><g id="S"><use transform="matrix(0.0728395061728395,0,0,0.0728395061728395,0,0)" xlink:href="#av"/><use transform="matrix(0.0728395061728395,0,0,0.0728395061728395,8.667901234567902,0)" xlink:href="#bb"/><use transform="matrix(0.0728395061728395,0,0,0.0728395061728395,23.235802469135802,0)" xlink:href="#al"/><use transform="matrix(0.0728395061728395,0,0,0.0728395061728395,37.803703703703704,0)" xlink:href="#ah"/><use transform="matrix(0.0728395061728395,0,0,0.0728395061728395,52.3716049382716,0)" xlink:href="#am"/><use transform="matrix(0.0728395061728395,0,0,0.0728395061728395,66.9395061728395,0)" xlink:href="#ao"/><use transform="matrix(0.0728395061728395,0,0,0.0728395061728395,72.69382716049383,0)" xlink:href="#al"/><use transform="matrix(0.0728395061728395,0,0,0.0728395061728395,87.26172839506172,0)" xlink:href="#ak"/><use transform="matrix(0.0728395061728395,0,0,0.0728395061728395,100.37283950617284,0)" xlink:href="#ak"/></g><path d="M240 0l2-218c-23 76-54 145-80 218h-23L58-218 59 0H30v-248h44l77 211c21-75 51-140 76-211h43V0h-30" id="bN"/><g id="T"><use transform="matrix(0.0728395061728395,0,0,0.0728395061728395,0,0)" xlink:href="#as"/><use transform="matrix(0.0728395061728395,0,0,0.0728395061728395,18.86543209876543,0)" xlink:href="#bN"/><use transform="matrix(0.0728395061728395,0,0,0.0728395061728395,40.644444444444446,0)" xlink:href="#af"/></g><g id="U"><use transform="matrix(0.0728395061728395,0,0,0.0728395061728395,0,0)" xlink:href="#aj"/><use transform="matrix(0.0728395061728395,0,0,0.0728395061728395,13.11111111111111,0)" xlink:href="#ap"/><use transform="matrix(0.0728395061728395,0,0,0.0728395061728395,27.679012345679013,0)" xlink:href="#bf"/><use transform="matrix(0.0728395061728395,0,0,0.0728395061728395,42.24691358024691,0)" xlink:href="#ag"/><use transform="matrix(0.0728395061728395,0,0,0.0728395061728395,49.53086419753086,0)" xlink:href="#al"/><use transform="matrix(0.0728395061728395,0,0,0.0728395061728395,64.09876543209876,0)" xlink:href="#bf"/><use transform="matrix(0.0728395061728395,0,0,0.0728395061728395,78.66666666666667,0)" xlink:href="#ag"/></g><g id="V"><use transform="matrix(0.0728395061728395,0,0,0.0728395061728395,0,0)" xlink:href="#ah"/><use transform="matrix(0.0728395061728395,0,0,0.0728395061728395,14.5679012345679,0)" xlink:href="#aj"/><use transform="matrix(0.0728395061728395,0,0,0.0728395061728395,27.679012345679013,0)" xlink:href="#aj"/><use transform="matrix(0.0728395061728395,0,0,0.0728395061728395,40.790123456790134,0)" xlink:href="#al"/><use transform="matrix(0.0728395061728395,0,0,0.0728395061728395,55.358024691358025,0)" xlink:href="#ak"/><use transform="matrix(0.0728395061728395,0,0,0.0728395061728395,68.46913580246914,0)" xlink:href="#ak"/><use transform="matrix(0.0728395061728395,0,0,0.0728395061728395,81.58024691358027,0)" xlink:href="#al"/><use transform="matrix(0.0728395061728395,0,0,0.0728395061728395,96.14814814814815,0)" xlink:href="#am"/></g><g id="W"><use transform="matrix(0.0728395061728395,0,0,0.0728395061728395,0,0)" xlink:href="#bc"/><use transform="matrix(0.0728395061728395,0,0,0.0728395061728395,13.11111111111111,0)" xlink:href="#ai"/><use transform="matrix(0.0728395061728395,0,0,0.0728395061728395,18.86543209876543,0)" xlink:href="#ah"/></g><path d="M30-248c87 1 191-15 191 75 0 78-77 80-158 76V0H30v-248zm33 125c57 0 124 11 124-50 0-59-68-47-124-48v98" id="bO"/><path d="M33 0v-248h34V0H33" id="bP"/><g id="X"><use transform="matrix(0.0728395061728395,0,0,0.0728395061728395,0,0)" xlink:href="#ba"/><use transform="matrix(0.0728395061728395,0,0,0.0728395061728395,17.48148148148148,0)" xlink:href="#bO"/><use transform="matrix(0.0728395061728395,0,0,0.0728395061728395,34.96296296296296,0)" xlink:href="#bP"/><use transform="matrix(0.0728395061728395,0,0,0.0728395061728395,42.24691358024691,0)" xlink:href="#aA"/></g><path fill="#666" d="M232-93c-1 65-40 97-104 97C67 4 28-28 28-90v-158h33c8 89-33 224 67 224 102 0 64-133 71-224h33v155" id="bQ"/><path fill="#666" d="M135-143c-3-34-86-38-87 0 15 53 115 12 119 90S17 21 10-45l28-5c4 36 97 45 98 0-10-56-113-15-118-90-4-57 82-63 122-42 12 7 21 19 24 35" id="bR"/><path fill="#666" d="M100-194c63 0 86 42 84 106H49c0 40 14 67 53 68 26 1 43-12 49-29l28 8c-11 28-37 45-77 45C44 4 14-33 15-96c1-61 26-98 85-98zm52 81c6-60-76-77-97-28-3 7-6 17-6 28h103" id="bS"/><path fill="#666" d="M114-163C36-179 61-72 57 0H25l-1-190h30c1 12-1 29 2 39 6-27 23-49 58-41v29" id="bT"/><g id="Y"><use transform="matrix(0.07407407407407406,0,0,0.07407407407407406,0,0)" xlink:href="#bQ"/><use transform="matrix(0.07407407407407406,0,0,0.07407407407407406,19.18518518518518,0)" xlink:href="#bR"/><use transform="matrix(0.07407407407407406,0,0,0.07407407407407406,32.51851851851851,0)" xlink:href="#bS"/><use transform="matrix(0.07407407407407406,0,0,0.07407407407407406,47.33333333333332,0)" xlink:href="#bT"/><use transform="matrix(0.07407407407407406,0,0,0.07407407407407406,56.14814814814813,0)" xlink:href="#bR"/></g><path fill="#333" d="M205 0l-28-72H64L36 0H1l101-248h38L239 0h-34zm-38-99l-47-123c-12 45-31 82-46 123h93" id="bU"/><path fill="#333" d="M9 0v-24l116-142H16v-24h144v24L44-24h123V0H9" id="bV"/><g id="Z"><use transform="matrix(0.05,0,0,0.05,0,0)" xlink:href="#bU"/><use transform="matrix(0.05,0,0,0.05,12,0)" xlink:href="#aR"/><use transform="matrix(0.05,0,0,0.05,26.950000000000003,0)" xlink:href="#aE"/><use transform="matrix(0.05,0,0,0.05,36.95,0)" xlink:href="#bV"/><use transform="matrix(0.05,0,0,0.05,45.95,0)" xlink:href="#aQ"/><use transform="matrix(0.05,0,0,0.05,55.95,0)" xlink:href="#bs"/></g><path fill="#333" d="M126-127c33 6 58 20 58 59 0 88-139 92-164 29-3-8-5-16-6-25l32-3c6 27 21 44 54 44 32 0 52-15 52-46 0-38-36-46-79-43v-28c39 1 72-4 72-42 0-27-17-43-46-43-28 0-47 15-49 41l-32-3c6-42 35-63 81-64 48-1 79 21 79 65 0 36-21 52-52 59" id="bW"/><g id="aa"><use transform="matrix(0.05,0,0,0.05,0,0)" xlink:href="#aK"/><use transform="matrix(0.05,0,0,0.05,12,0)" xlink:href="#bW"/></g><path d="M140-251c81 0 123 46 123 126C263-46 219 4 140 4 59 4 17-45 17-125s42-126 123-126zm0 227c63 0 89-41 89-101s-29-99-89-99c-61 0-89 39-89 99S79-25 140-24" id="bX"/><path d="M177-190C167-65 218 103 67 71c-23-6-38-20-44-43l32-5c15 47 100 32 89-28v-30C133-14 115 1 83 1 29 1 15-40 15-95c0-56 16-97 71-98 29-1 48 16 59 35 1-10 0-23 2-32h30zM94-22c36 0 50-32 50-73 0-42-14-75-50-75-39 0-46 34-46 75s6 73 46 73" id="bY"/><g id="ab"><use transform="matrix(0.07469135802469135,0,0,0.07469135802469135,0,0)" xlink:href="#bX"/><use transform="matrix(0.07469135802469135,0,0,0.07469135802469135,20.913580246913575,0)" xlink:href="#ar"/><use transform="matrix(0.07469135802469135,0,0,0.07469135802469135,29.801851851851843,0)" xlink:href="#bY"/></g><path d="M143 4C61 4 22-44 18-125c-5-107 100-154 193-111 17 8 29 25 37 43l-32 9c-13-25-37-40-76-40-61 0-88 39-88 99 0 61 29 100 91 101 35 0 62-11 79-27v-45h-74v-28h105v86C228-13 192 4 143 4" id="bZ"/><path d="M197 0v-115H63V0H30v-248h33v105h134v-105h34V0h-34" id="ca"/><g id="ac"><use transform="matrix(0.07469135802469135,0,0,0.07469135802469135,0,0)" xlink:href="#bZ"/><use transform="matrix(0.07469135802469135,0,0,0.07469135802469135,20.913580246913575,0)" xlink:href="#ai"/><use transform="matrix(0.07469135802469135,0,0,0.07469135802469135,26.81419753086419,0)" xlink:href="#ag"/><use transform="matrix(0.07469135802469135,0,0,0.07469135802469135,34.283333333333324,0)" xlink:href="#ca"/><use transform="matrix(0.07469135802469135,0,0,0.07469135802469135,53.62839506172838,0)" xlink:href="#aw"/><use transform="matrix(0.07469135802469135,0,0,0.07469135802469135,68.56666666666665,0)" xlink:href="#bd"/></g></defs></g></svg>